<?xml version="1.0" encoding="UTF-8"?>
<svg version="1.1" xmlns="http://www.w3.org/2000/svg" width="2053" height="2043">
<path d="M0 0 C1.43492847 -0.01418719 2.86984987 -0.02910449 4.30476379 -0.04469299 C9.00308305 -0.09174599 13.70141872 -0.11762033 18.39990234 -0.1418457 C20.02739886 -0.15126461 21.65489495 -0.16075918 23.28239059 -0.17032814 C30.06465804 -0.20881147 36.84691347 -0.24200937 43.62926674 -0.26069927 C53.29136973 -0.28740288 62.95212107 -0.34468408 72.61373484 -0.44646424 C79.43708134 -0.51583738 86.26007304 -0.54971948 93.08376348 -0.55826408 C97.14319324 -0.56420922 101.2012297 -0.58448064 105.26027298 -0.64282799 C123.71882976 -0.89480686 139.47200453 -0.20422232 155.86083984 9.36987305 C157.01988012 10.03174842 157.01988012 10.03174842 158.20233536 10.70699501 C181.97082357 24.38143405 200.31207903 43.38040426 211.86083984 68.36987305 C211.86083984 69.02987305 211.86083984 69.68987305 211.86083984 70.36987305 C161.37083984 70.36987305 110.88083984 70.36987305 58.86083984 70.36987305 C70.73187946 90.76578693 70.73187946 90.76578693 83.03271484 110.8034668 C87.14531576 117.37211796 91.04279129 124.07364916 94.98583984 130.74487305 C100.85673819 140.67614879 106.78264035 150.56361883 112.86083984 160.36987305 C118.84899294 170.03415393 124.69732263 179.77265934 130.48583984 189.55737305 C137.59494154 201.57280605 144.78725216 213.53215819 152.07128906 225.44262695 C155.40363466 230.89348968 158.72867251 236.3487825 162.04833984 241.80737305 C162.39891449 242.38366455 162.74948914 242.95995605 163.11068726 243.55371094 C169.49885368 254.06177254 175.77715444 264.63341642 182.03915405 275.2170105 C186.58535632 282.89783828 191.1596127 290.55045874 195.94995117 298.08227539 C200.4491847 305.20979292 204.69692415 312.48980705 208.98583984 319.74487305 C214.85695677 329.67602436 220.78263637 339.56361241 226.86083984 349.36987305 C232.84899294 359.03415393 238.69732263 368.77265934 244.48583984 378.55737305 C251.59328905 390.57001308 258.78421435 402.52634457 266.06689453 414.43383789 C269.42382238 419.92790626 272.76822434 425.42958977 276.11083984 430.93237305 C276.46169647 431.50989319 276.8125531 432.08741333 277.17404175 432.68243408 C284.11748435 444.11515947 291.00755556 455.57974108 297.88021851 467.05513 C298.90525779 468.76546136 299.93257559 470.4744265 300.95996094 472.18334961 C302.20175637 474.26502364 303.42933419 476.35526325 304.640625 478.45483398 C305.17349121 479.37296875 305.70635742 480.29110352 306.25537109 481.23706055 C306.94336792 482.44144775 306.94336792 482.44144775 307.64526367 483.67016602 C308.04640381 484.23106934 308.44754395 484.79197266 308.86083984 485.36987305 C309.52083984 485.36987305 310.18083984 485.36987305 310.86083984 485.36987305 C312.54615215 482.96062422 312.54615215 482.96062422 314.28271484 479.8347168 C314.6189386 479.25387329 314.95516235 478.67302979 315.30157471 478.07458496 C316.02924898 476.81602438 316.75362223 475.55555083 317.47509766 474.29342651 C319.39562582 470.93503087 321.34099261 467.59104364 323.28271484 464.24487305 C323.67366333 463.56960068 324.06461182 462.89432831 324.46740723 462.19859314 C327.85536011 456.35437441 331.33321056 450.56839225 334.86083984 444.80737305 C335.70207397 443.43137939 335.70207397 443.43137939 336.56030273 442.02758789 C337.71927719 440.1331703 338.87887239 438.23913233 340.0390625 436.34545898 C343.38507943 430.8802681 346.71901949 425.40774537 350.04833984 419.93237305 C350.39873322 419.35635345 350.74912659 418.78033386 351.11013794 418.18685913 C357.49849963 407.67852928 363.77698601 397.10661434 370.03915405 386.5227356 C374.58535632 378.84190781 379.1596127 371.18928735 383.94995117 363.6574707 C388.4491847 356.52995318 392.69692415 349.24993904 396.98583984 341.99487305 C402.85695553 332.06372382 408.78255901 322.17608403 414.86083984 312.36987305 C420.81034722 302.76949757 426.61495576 293.09296828 432.36083984 283.36987305 C438.10672659 273.64677331 443.91151378 263.97036412 449.86083984 254.36987305 C455.84888672 244.70552464 461.69732113 234.96708928 467.48583984 225.18237305 C474.59494154 213.16694005 481.78725216 201.20758791 489.07128906 189.29711914 C492.40363466 183.84625642 495.72867251 178.39096359 499.04833984 172.93237305 C499.39891449 172.35608154 499.74948914 171.77979004 500.11068726 171.18603516 C506.49885368 160.67797356 512.77715444 150.10632967 519.03915405 139.5227356 C523.24018929 132.42506896 527.44760706 125.33840897 531.86083984 118.36987305 C535.15154459 113.15306188 538.36399243 107.89658858 541.50537109 102.58862305 C541.9236467 101.88386841 542.3419223 101.17911377 542.77287292 100.45300293 C544.91091972 96.84947381 547.04410797 93.24308867 549.17529297 89.63549805 C549.57753586 88.9552356 549.97977875 88.27497314 550.39421082 87.57409668 C551.14802956 86.2988663 551.90096432 85.02311273 552.65278625 83.7467041 C555.31793246 79.23724542 558.08211168 74.81583812 560.86083984 70.36987305 C510.37083984 70.36987305 459.88083984 70.36987305 407.86083984 70.36987305 C417.34865869 41.90641651 441.53724696 20.82609683 467.46240234 7.4753418 C468.9272062 6.77072227 470.39359271 6.06939063 471.86083984 5.36987305 C472.71034249 4.94831848 473.55984514 4.52676392 474.4350903 4.09243497 C482.31192243 0.45347689 488.91186362 -0.34038189 497.52226448 -0.25374603 C498.86687785 -0.25836515 500.21148512 -0.2651749 501.55607778 -0.27395213 C505.23378006 -0.29167009 508.91080609 -0.27850067 512.58848053 -0.260062 C516.5959558 -0.24552191 520.60334535 -0.26012208 524.61081779 -0.27094698 C531.62871195 -0.28590446 538.64640568 -0.2823389 545.6642952 -0.26652908 C556.1000692 -0.2430843 566.53569255 -0.2483175 576.97148013 -0.25923798 C595.61009967 -0.27781818 614.24862359 -0.2681176 632.88723532 -0.24676035 C649.19693435 -0.22820369 665.50660128 -0.21978161 681.81631088 -0.22132874 C682.89815794 -0.22142041 683.980005 -0.22151209 685.0946353 -0.22160654 C689.48617992 -0.2219997 693.87772453 -0.22244932 698.26926913 -0.22297793 C739.46331006 -0.22784884 780.657294 -0.20518757 821.85131722 -0.1690217 C858.45394983 -0.13702398 895.05653378 -0.12497891 931.65917969 -0.13110352 C934.00970881 -0.13149036 936.36023793 -0.13187682 938.71076705 -0.13226289 C939.87282172 -0.13245423 941.0348764 -0.13264558 942.23214485 -0.13284272 C948.08171495 -0.13379705 953.93128506 -0.13471142 959.78085518 -0.13558197 C960.93487429 -0.13575576 962.08889341 -0.13592956 963.2778828 -0.13610862 C993.86000085 -0.14046303 1024.44211365 -0.13045121 1055.02422798 -0.11574411 C1056.11200932 -0.11522397 1057.19979065 -0.11470383 1058.32053506 -0.11416793 C1059.40633569 -0.11364858 1060.49213631 -0.11312924 1061.61083999 -0.11259416 C1063.23656793 -0.11181755 1063.23656793 -0.11181755 1064.89513886 -0.11102525 C1067.07785172 -0.10997716 1069.26056458 -0.10891695 1071.44327743 -0.10784453 C1086.66419712 -0.10046193 1101.88510936 -0.09837608 1117.10603062 -0.09983853 C1136.71896109 -0.10168359 1156.3318457 -0.0936286 1175.94476117 -0.06819707 C1186.31847794 -0.05502585 1196.6921215 -0.05002485 1207.06584483 -0.05683561 C1213.99302485 -0.06054419 1220.92013799 -0.05335177 1227.84730013 -0.03724323 C1231.79540935 -0.02836 1235.74336784 -0.02418415 1239.69148029 -0.0331704 C1243.28553782 -0.04124617 1246.87930016 -0.0354529 1250.47332553 -0.01875351 C1252.36985177 -0.01346361 1254.26640177 -0.0227986 1256.16290909 -0.03278792 C1267.4215451 0.04642429 1276.79598324 2.531626 1285.86083984 9.36987305 C1292.6575596 16.66734815 1298.01464811 25.28981242 1303.54833984 33.55737305 C1304.46698813 34.92267276 1305.38610636 36.28765638 1306.30566406 37.65234375 C1308.2114506 40.48145015 1310.11523381 43.3118885 1312.01757812 46.14331055 C1316.0543815 52.14834172 1320.11542118 58.13692733 1324.17623901 64.12573242 C1325.49092318 66.06487089 1326.80501254 68.00441104 1328.11889648 69.9440918 C1336.24480662 81.94031588 1344.38068054 93.92977149 1352.51806641 105.91821289 C1356.06967955 111.1507351 1359.62046566 116.38381851 1363.17132568 121.61685181 C1365.15113096 124.5345478 1367.13098798 127.45220867 1369.11083984 130.36987305 C1369.90250676 131.53653954 1370.69417343 132.70320621 1371.48583984 133.86987305 C1371.87771484 134.44737305 1372.26958984 135.02487305 1372.67333984 135.61987305 C1414.23583988 196.8698731 1414.23583988 196.8698731 1415.42337036 198.61991882 C1416.21493431 199.78643358 1417.00649925 200.95294766 1417.79806519 202.11946106 C1419.77881164 205.03844645 1421.75954073 207.95744362 1423.74023438 210.87646484 C1427.28386223 216.098804 1430.82760281 221.32106644 1434.37200928 226.5428772 C1443.48511865 239.96882686 1452.59194194 253.39900512 1461.69128418 266.83428955 C1470.29265948 279.53406016 1478.90378743 292.22719253 1487.51806641 304.91821289 C1491.06967955 310.1507351 1494.62046566 315.38381851 1498.17132568 320.61685181 C1500.15113096 323.5345478 1502.13098798 326.45220867 1504.11083984 329.36987305 C1504.90250676 330.53653954 1505.69417343 331.70320621 1506.48583984 332.86987305 C1506.87771484 333.44737305 1507.26958984 334.02487305 1507.67333984 334.61987305 C1530.23583969 367.86987282 1530.23583969 367.86987282 1531.42337036 369.61991882 C1532.21493431 370.78643358 1533.00649925 371.95294766 1533.79806519 373.11946106 C1535.77881164 376.03844645 1537.75954073 378.95744362 1539.74023438 381.87646484 C1543.28386223 387.098804 1546.82760281 392.32106644 1550.37200928 397.5428772 C1559.48511865 410.96882686 1568.59194194 424.39900512 1577.69128418 437.83428955 C1586.29265948 450.53406016 1594.90378743 463.22719253 1603.51806641 475.91821289 C1605.87999997 479.39800343 1608.24155761 482.87804898 1610.60302734 486.3581543 C1610.99593964 486.93716492 1611.38885193 487.51617554 1611.79367065 488.11273193 C1613.76605994 491.01937363 1615.73822367 493.92616791 1617.70996094 496.83325195 C1621.37955759 502.24311389 1625.05123483 507.65152613 1628.73046875 513.05484009 C1630.44590289 515.57440408 1632.16012729 518.09479001 1633.87426758 520.61523438 C1634.682424 521.80281744 1635.49115614 522.99000898 1636.30053711 524.17675781 C1654.32216255 550.60213172 1654.32216255 550.60213172 1652.86083984 567.36987305 C1649.99479843 580.26705942 1638.86109032 589.63293943 1630.12646484 598.8894043 C1627.1706853 602.02637146 1624.30344825 605.225944 1621.48974609 608.4909668 C1618.00923808 612.5056535 1614.42110507 616.42601022 1610.86083984 620.36987305 C1609.36055305 622.03628156 1607.86055112 623.70294657 1606.36083984 625.36987305 C1600.36083984 632.03653971 1594.36083984 638.70320638 1588.36083984 645.36987305 C1587.62091797 646.19229492 1586.88099609 647.0147168 1586.11865234 647.86206055 C1584.5937574 649.55580199 1583.06768583 651.24848474 1581.54052734 652.94018555 C1578.16171276 656.68551561 1574.79188019 660.43505512 1571.48583984 664.24487305 C1568.03232423 668.21240029 1564.47080045 672.07834945 1560.90820312 675.94750977 C1558.35558222 678.72445987 1555.8311578 681.51950618 1553.36083984 684.36987305 C1550.42239975 687.76038085 1547.39969843 691.06956335 1544.36083984 694.36987305 C1540.73993851 698.30272146 1537.17125059 702.27201317 1533.66943359 706.3112793 C1530.58304504 709.82429607 1527.41455206 713.26287123 1524.26318359 716.7175293 C1522.2914214 718.894483 1520.34718647 721.08825979 1518.42333984 723.30737305 C1514.99315409 727.25654672 1511.45080467 731.1000961 1507.90795898 734.94775391 C1505.35543531 737.72463674 1502.83108238 740.5195932 1500.36083984 743.36987305 C1497.42239975 746.76038085 1494.39969843 750.06956335 1491.36083984 753.36987305 C1487.73993851 757.30272146 1484.17125059 761.27201317 1480.66943359 765.3112793 C1477.58304504 768.82429607 1474.41455206 772.26287123 1471.26318359 775.7175293 C1469.2914214 777.894483 1467.34718647 780.08825979 1465.42333984 782.30737305 C1461.99315409 786.25654672 1458.45080467 790.1000961 1454.90795898 793.94775391 C1452.35543531 796.72463674 1449.83108238 799.5195932 1447.36083984 802.36987305 C1444.4223992 805.76038149 1441.39967682 809.06954287 1438.36083984 812.36987305 C1434.71667044 816.32847028 1431.12170205 820.32164136 1427.59521484 824.38549805 C1424.0658327 828.42361995 1420.45449759 832.38901986 1416.86083984 836.36987305 C1415.36055305 838.03628156 1413.86055112 839.70294657 1412.36083984 841.36987305 C1403.36083984 851.36987305 1394.36083984 861.36987305 1385.36083984 871.36987305 C1384.62091797 872.19229492 1383.88099609 873.0147168 1383.11865234 873.86206055 C1381.5937574 875.55580199 1380.06768583 877.24848474 1378.54052734 878.94018555 C1375.16171276 882.68551561 1371.79188019 886.43505512 1368.48583984 890.24487305 C1365.03232423 894.21240029 1361.47080045 898.07834945 1357.90820312 901.94750977 C1355.35558222 904.72445987 1352.8311578 907.51950618 1350.36083984 910.36987305 C1347.42239975 913.76038085 1344.39969843 917.06956335 1341.36083984 920.36987305 C1337.73993851 924.30272146 1334.17125059 928.27201317 1330.66943359 932.3112793 C1327.58304504 935.82429607 1324.41455206 939.26287123 1321.26318359 942.7175293 C1319.2914214 944.894483 1317.34718647 947.08825979 1315.42333984 949.30737305 C1311.99315409 953.25654672 1308.45080467 957.1000961 1304.90795898 960.94775391 C1302.35543531 963.72463674 1299.83108238 966.5195932 1297.36083984 969.36987305 C1294.4223992 972.76038149 1291.39967682 976.06954287 1288.36083984 979.36987305 C1284.71667044 983.32847028 1281.12170205 987.32164136 1277.59521484 991.38549805 C1274.0658327 995.42361995 1270.45449759 999.38901986 1266.86083984 1003.36987305 C1265.36055305 1005.03628156 1263.86055112 1006.70294657 1262.36083984 1008.36987305 C1253.36083984 1018.36987305 1244.36083984 1028.36987305 1235.36083984 1038.36987305 C1234.25095703 1039.60350586 1234.25095703 1039.60350586 1233.11865234 1040.86206055 C1231.5937574 1042.55580199 1230.06768583 1044.24848474 1228.54052734 1045.94018555 C1225.16171276 1049.68551561 1221.79188019 1053.43505512 1218.48583984 1057.24487305 C1215.03232423 1061.21240029 1211.47080045 1065.07834945 1207.90820312 1068.94750977 C1205.35558222 1071.72445987 1202.8311578 1074.51950618 1200.36083984 1077.36987305 C1197.4223992 1080.76038149 1194.39967682 1084.06954287 1191.36083984 1087.36987305 C1187.71667044 1091.32847028 1184.12170205 1095.32164136 1180.59521484 1099.38549805 C1177.0658327 1103.42361995 1173.45449759 1107.38901986 1169.86083984 1111.36987305 C1168.36055305 1113.03628156 1166.86055112 1114.70294657 1165.36083984 1116.36987305 C1156.36083984 1126.36987305 1147.36083984 1136.36987305 1138.36083984 1146.36987305 C1137.25095703 1147.60350586 1137.25095703 1147.60350586 1136.11865234 1148.86206055 C1134.5937574 1150.55580199 1133.06768583 1152.24848474 1131.54052734 1153.94018555 C1128.16171276 1157.68551561 1124.79188019 1161.43505512 1121.48583984 1165.24487305 C1118.03232423 1169.21240029 1114.47080045 1173.07834945 1110.90820312 1176.94750977 C1108.35558222 1179.72445987 1105.8311578 1182.51950618 1103.36083984 1185.36987305 C1100.42239975 1188.76038085 1097.39969843 1192.06956335 1094.36083984 1195.36987305 C1090.73993851 1199.30272146 1087.17125059 1203.27201317 1083.66943359 1207.3112793 C1080.58304504 1210.82429607 1077.41455206 1214.26287123 1074.26318359 1217.7175293 C1072.2914214 1219.894483 1070.34718647 1222.08825979 1068.42333984 1224.30737305 C1064.99315409 1228.25654672 1061.45080467 1232.1000961 1057.90795898 1235.94775391 C1055.35543531 1238.72463674 1052.83108238 1241.5195932 1050.36083984 1244.36987305 C1047.4223992 1247.76038149 1044.39967682 1251.06954287 1041.36083984 1254.36987305 C1037.71667044 1258.32847028 1034.12170205 1262.32164136 1030.59521484 1266.38549805 C1027.0658327 1270.42361995 1023.45449759 1274.38901986 1019.86083984 1278.36987305 C1018.36055305 1280.03628156 1016.86055112 1281.70294657 1015.36083984 1283.36987305 C1006.36083984 1293.36987305 997.36083984 1303.36987305 988.36083984 1313.36987305 C987.25095703 1314.60350586 987.25095703 1314.60350586 986.11865234 1315.86206055 C984.5937574 1317.55580199 983.06768583 1319.24848474 981.54052734 1320.94018555 C978.16171276 1324.68551561 974.79188019 1328.43505512 971.48583984 1332.24487305 C968.03232423 1336.21240029 964.47080045 1340.07834945 960.90820312 1343.94750977 C958.35558222 1346.72445987 955.8311578 1349.51950618 953.36083984 1352.36987305 C950.42239975 1355.76038085 947.39969843 1359.06956335 944.36083984 1362.36987305 C940.73993851 1366.30272146 937.17125059 1370.27201317 933.66943359 1374.3112793 C930.58304504 1377.82429607 927.41455206 1381.26287123 924.26318359 1384.7175293 C922.2914214 1386.894483 920.34718647 1389.08825979 918.42333984 1391.30737305 C914.99315409 1395.25654672 911.45080467 1399.1000961 907.90795898 1402.94775391 C905.35543531 1405.72463674 902.83108238 1408.5195932 900.36083984 1411.36987305 C897.4223992 1414.76038149 894.39967682 1418.06954287 891.36083984 1421.36987305 C887.71667044 1425.32847028 884.12170205 1429.32164136 880.59521484 1433.38549805 C877.0658327 1437.42361995 873.45449759 1441.38901986 869.86083984 1445.36987305 C868.36055305 1447.03628156 866.86055112 1448.70294657 865.36083984 1450.36987305 C856.36083984 1460.36987305 847.36083984 1470.36987305 838.36083984 1480.36987305 C837.25095703 1481.60350586 837.25095703 1481.60350586 836.11865234 1482.86206055 C834.5937574 1484.55580199 833.06768583 1486.24848474 831.54052734 1487.94018555 C828.16171276 1491.68551561 824.79188019 1495.43505512 821.48583984 1499.24487305 C818.03232423 1503.21240029 814.47080045 1507.07834945 810.90820312 1510.94750977 C808.35558222 1513.72445987 805.8311578 1516.51950618 803.36083984 1519.36987305 C800.42239975 1522.76038085 797.39969843 1526.06956335 794.36083984 1529.36987305 C790.73993851 1533.30272146 787.17125059 1537.27201317 783.66943359 1541.3112793 C780.58304504 1544.82429607 777.41455206 1548.26287123 774.26318359 1551.7175293 C772.2914214 1553.894483 770.34718647 1556.08825979 768.42333984 1558.30737305 C764.99315409 1562.25654672 761.45080467 1566.1000961 757.90795898 1569.94775391 C755.35543531 1572.72463674 752.83108238 1575.5195932 750.36083984 1578.36987305 C747.4223992 1581.76038149 744.39967682 1585.06954287 741.36083984 1588.36987305 C737.71667044 1592.32847028 734.12170205 1596.32164136 730.59521484 1600.38549805 C727.0658327 1604.42361995 723.45449759 1608.38901986 719.86083984 1612.36987305 C718.36055305 1614.03628156 716.86055112 1615.70294657 715.36083984 1617.36987305 C706.36083984 1627.36987305 697.36083984 1637.36987305 688.36083984 1647.36987305 C687.25095703 1648.60350586 687.25095703 1648.60350586 686.11865234 1649.86206055 C684.5937574 1651.55580199 683.06768583 1653.24848474 681.54052734 1654.94018555 C678.16171276 1658.68551561 674.79188019 1662.43505512 671.48583984 1666.24487305 C667.99329601 1670.26088949 664.38974444 1674.17160096 660.76757812 1678.07055664 C658.68895039 1680.31984592 656.6877136 1682.58717409 654.77880859 1684.9831543 C650.63408631 1690.14084333 647.26243675 1692.33027797 640.86083984 1694.11987305 C640.1019043 1694.33377686 639.34296875 1694.54768066 638.56103516 1694.76806641 C626.71550346 1697.91477055 615.37193958 1697.16703835 604.49755859 1691.0378418 C594.97487708 1684.16131675 587.23543915 1674.20718788 579.59912109 1665.3581543 C577.38827495 1662.82934377 575.12487541 1660.35114741 572.86083984 1657.86987305 C570.01559756 1654.75080294 567.18884404 1651.62231913 564.42333984 1648.43237305 C560.99315409 1644.48319938 557.45080467 1640.63965 553.90795898 1636.79199219 C550.79484686 1633.40524686 547.74831902 1629.97081056 544.73583984 1626.49487305 C542.31533843 1623.75163811 539.83879807 1621.06106062 537.36083984 1618.36987305 C533.71667044 1614.41127582 530.12170205 1610.41810473 526.59521484 1606.35424805 C523.0658327 1602.31612614 519.45449759 1598.35072624 515.86083984 1594.36987305 C514.36055305 1592.70346454 512.86055112 1591.03679952 511.36083984 1589.36987305 C510.61833984 1588.54487305 509.87583984 1587.71987305 509.11083984 1586.86987305 C484.36083984 1559.36987305 484.36083984 1559.36987305 482.11865234 1556.87768555 C480.5937574 1555.1839441 479.06768583 1553.49126136 477.54052734 1551.79956055 C474.16171276 1548.05423049 470.79188019 1544.30469097 467.48583984 1540.49487305 C464.03232423 1536.52734581 460.47080045 1532.66139664 456.90820312 1528.79223633 C453.7949894 1525.40542744 450.74839446 1521.97089761 447.73583984 1518.49487305 C445.31533843 1515.75163811 442.83879807 1513.06106062 440.36083984 1510.36987305 C436.71667044 1506.41127582 433.12170205 1502.41810473 429.59521484 1498.35424805 C426.0658327 1494.31612614 422.45449759 1490.35072624 418.86083984 1486.36987305 C417.36055305 1484.70346454 415.86055112 1483.03679952 414.36083984 1481.36987305 C413.61833984 1480.54487305 412.87583984 1479.71987305 412.11083984 1478.86987305 C387.36083984 1451.36987305 387.36083984 1451.36987305 385.11865234 1448.87768555 C383.5937574 1447.1839441 382.06768583 1445.49126136 380.54052734 1443.79956055 C377.16171276 1440.05423049 373.79188019 1436.30469097 370.48583984 1432.49487305 C367.03232423 1428.52734581 363.47080045 1424.66139664 359.90820312 1420.79223633 C356.7949894 1417.40542744 353.74839446 1413.97089761 350.73583984 1410.49487305 C348.31533843 1407.75163811 345.83879807 1405.06106062 343.36083984 1402.36987305 C339.71667044 1398.41127582 336.12170205 1394.41810473 332.59521484 1390.35424805 C329.0658327 1386.31612614 325.45449759 1382.35072624 321.86083984 1378.36987305 C320.36055305 1376.70346454 318.86055112 1375.03679952 317.36083984 1373.36987305 C316.61833984 1372.54487305 315.87583984 1371.71987305 315.11083984 1370.86987305 C290.36083984 1343.36987305 290.36083984 1343.36987305 288.11865234 1340.87768555 C286.5937574 1339.1839441 285.06768583 1337.49126136 283.54052734 1335.79956055 C280.16171276 1332.05423049 276.79188019 1328.30469097 273.48583984 1324.49487305 C270.03232423 1320.52734581 266.47080045 1316.66139664 262.90820312 1312.79223633 C259.7949894 1309.40542744 256.74839446 1305.97089761 253.73583984 1302.49487305 C251.31533843 1299.75163811 248.83879807 1297.06106062 246.36083984 1294.36987305 C242.71667044 1290.41127582 239.12170205 1286.41810473 235.59521484 1282.35424805 C232.0658327 1278.31612614 228.45449759 1274.35072624 224.86083984 1270.36987305 C223.36055305 1268.70346454 221.86055112 1267.03679952 220.36083984 1265.36987305 C219.61833984 1264.54487305 218.87583984 1263.71987305 218.11083984 1262.86987305 C193.36083984 1235.36987305 193.36083984 1235.36987305 191.11865234 1232.87768555 C189.5937574 1231.1839441 188.06768583 1229.49126136 186.54052734 1227.79956055 C183.16171276 1224.05423049 179.79188019 1220.30469097 176.48583984 1216.49487305 C173.03232423 1212.52734581 169.47080045 1208.66139664 165.90820312 1204.79223633 C162.7949894 1201.40542744 159.74839446 1197.97089761 156.73583984 1194.49487305 C154.31533843 1191.75163811 151.83879807 1189.06106062 149.36083984 1186.36987305 C145.71667044 1182.41127582 142.12170205 1178.41810473 138.59521484 1174.35424805 C135.0658327 1170.31612614 131.45449759 1166.35072624 127.86083984 1162.36987305 C126.36055305 1160.70346454 124.86055112 1159.03679952 123.36083984 1157.36987305 C122.61833984 1156.54487305 121.87583984 1155.71987305 121.11083984 1154.86987305 C96.36083984 1127.36987305 96.36083984 1127.36987305 94.11865234 1124.87768555 C92.5937574 1123.1839441 91.06768583 1121.49126136 89.54052734 1119.79956055 C86.16171276 1116.05423049 82.79188019 1112.30469097 79.48583984 1108.49487305 C76.03232423 1104.52734581 72.47080045 1100.66139664 68.90820312 1096.79223633 C65.7949894 1093.40542744 62.74839446 1089.97089761 59.73583984 1086.49487305 C57.31533843 1083.75163811 54.83879807 1081.06106062 52.36083984 1078.36987305 C48.71667044 1074.41127582 45.12170205 1070.41810473 41.59521484 1066.35424805 C38.0658327 1062.31612614 34.45449759 1058.35072624 30.86083984 1054.36987305 C29.36055305 1052.70346454 27.86055112 1051.03679952 26.36083984 1049.36987305 C25.24708984 1048.13237305 25.24708984 1048.13237305 24.11083984 1046.86987305 C-0.63916016 1019.36987305 -0.63916016 1019.36987305 -2.88134766 1016.87768555 C-4.4062426 1015.1839441 -5.93231417 1013.49126136 -7.45947266 1011.79956055 C-10.83828724 1008.05423049 -14.20811981 1004.30469097 -17.51416016 1000.49487305 C-20.96767577 996.52734581 -24.52919955 992.66139664 -28.09179688 988.79223633 C-31.2050106 985.40542744 -34.25160554 981.97089761 -37.26416016 978.49487305 C-39.68466157 975.75163811 -42.16120193 973.06106062 -44.63916016 970.36987305 C-48.28332956 966.41127582 -51.87829795 962.41810473 -55.40478516 958.35424805 C-58.9341673 954.31612614 -62.54550241 950.35072624 -66.13916016 946.36987305 C-67.63944695 944.70346454 -69.13944888 943.03679952 -70.63916016 941.36987305 C-71.38166016 940.54487305 -72.12416016 939.71987305 -72.88916016 938.86987305 C-97.63916016 911.36987305 -97.63916016 911.36987305 -99.88134766 908.87768555 C-101.4062426 907.1839441 -102.93231417 905.49126136 -104.45947266 903.79956055 C-107.83828724 900.05423049 -111.20811981 896.30469097 -114.51416016 892.49487305 C-117.96767577 888.52734581 -121.52919955 884.66139664 -125.09179688 880.79223633 C-128.2050106 877.40542744 -131.25160554 873.97089761 -134.26416016 870.49487305 C-136.68466157 867.75163811 -139.16120193 865.06106062 -141.63916016 862.36987305 C-145.28332956 858.41127582 -148.87829795 854.41810473 -152.40478516 850.35424805 C-155.9341673 846.31612614 -159.54550241 842.35072624 -163.13916016 838.36987305 C-164.63944695 836.70346454 -166.13944888 835.03679952 -167.63916016 833.36987305 C-168.38166016 832.54487305 -169.12416016 831.71987305 -169.88916016 830.86987305 C-194.63916016 803.36987305 -194.63916016 803.36987305 -196.88134766 800.87768555 C-198.4062426 799.1839441 -199.93231417 797.49126136 -201.45947266 795.79956055 C-204.83828724 792.05423049 -208.20811981 788.30469097 -211.51416016 784.49487305 C-214.96767577 780.52734581 -218.52919955 776.66139664 -222.09179688 772.79223633 C-225.2050106 769.40542744 -228.25160554 765.97089761 -231.26416016 762.49487305 C-233.68466157 759.75163811 -236.16120193 757.06106062 -238.63916016 754.36987305 C-242.28332956 750.41127582 -245.87829795 746.41810473 -249.40478516 742.35424805 C-252.9341673 738.31612614 -256.54550241 734.35072624 -260.13916016 730.36987305 C-261.63944695 728.70346454 -263.13944888 727.03679952 -264.63916016 725.36987305 C-265.38166016 724.54487305 -266.12416016 723.71987305 -266.88916016 722.86987305 C-291.63916016 695.36987305 -291.63916016 695.36987305 -293.88134766 692.87768555 C-295.4062426 691.1839441 -296.93231417 689.49126136 -298.45947266 687.79956055 C-301.83828724 684.05423049 -305.20811981 680.30469097 -308.51416016 676.49487305 C-311.96767577 672.52734581 -315.52919955 668.66139664 -319.09179688 664.79223633 C-322.2050106 661.40542744 -325.25160554 657.97089761 -328.26416016 654.49487305 C-330.68466157 651.75163811 -333.16120193 649.06106062 -335.63916016 646.36987305 C-339.28332956 642.41127582 -342.87829795 638.41810473 -346.40478516 634.35424805 C-349.9341673 630.31612614 -353.54550241 626.35072624 -357.13916016 622.36987305 C-358.63944695 620.70346454 -360.13944888 619.03679952 -361.63916016 617.36987305 C-362.38166016 616.54487305 -363.12416016 615.71987305 -363.88916016 614.86987305 C-379.63916016 597.36987305 -379.63916016 597.36987305 -381.87353516 594.87768555 C-383.41308168 593.17356681 -384.96571115 591.48119567 -386.52978516 589.79956055 C-394.77250747 580.87449367 -400.4898666 573.20393655 -400.51416016 560.61987305 C-400.54251953 559.3050293 -400.57087891 557.99018555 -400.60009766 556.63549805 C-399.9371323 546.15794949 -393.38706813 537.80634297 -387.57666016 529.49487305 C-386.72797267 528.26511534 -385.88033789 527.03463055 -385.03369141 525.8034668 C-383.27845374 523.25279637 -381.51878361 520.70527528 -379.75585938 518.15991211 C-376.07094502 512.83217342 -372.44182811 507.46678824 -368.81155396 502.10174561 C-366.84001274 499.18936401 -364.86436753 496.27976886 -362.88916016 493.36987305 C-362.09747409 492.20321954 -361.30580742 491.03655288 -360.51416016 489.86987305 C-352.59749349 478.20320638 -344.68082682 466.53653971 -336.76416016 454.86987305 C-336.37227509 454.29235794 -335.98039001 453.71484283 -335.57662964 453.11982727 C-334.78506569 451.95331252 -333.99350075 450.78679844 -333.20193481 449.62028503 C-331.22118836 446.70129964 -329.24045927 443.78230247 -327.25976562 440.86328125 C-323.71613777 435.64094209 -320.17239719 430.41867965 -316.62799072 425.1968689 C-307.95903459 412.42527097 -299.2950203 399.65035102 -290.63916016 386.86987305 C-281.59442321 373.51521397 -272.54036651 360.16690511 -263.48193359 346.8215332 C-259.93032045 341.589011 -256.37953434 336.35592758 -252.82867432 331.12289429 C-250.84886904 328.2051983 -248.86901202 325.28753742 -246.88916016 322.36987305 C-246.09749324 321.20320655 -245.30582657 320.03653988 -244.51416016 318.86987305 C-230.26416016 297.86987305 -216.01416016 276.86987305 -201.76416016 255.86987305 C-201.37227509 255.29235794 -200.98039001 254.71484283 -200.57662964 254.11982727 C-199.78506569 252.95331252 -198.99350075 251.78679844 -198.20193481 250.62028503 C-196.22118836 247.70129964 -194.24045927 244.78230247 -192.25976562 241.86328125 C-188.71613777 236.64094209 -185.17239719 231.41867965 -181.62799072 226.1968689 C-172.95903459 213.42527097 -164.2950203 200.65035102 -155.63916016 187.86987305 C-146.59442321 174.51521397 -137.54036651 161.16690511 -128.48193359 147.8215332 C-124.93032045 142.589011 -121.37953434 137.35592758 -117.82867432 132.12289429 C-115.84886904 129.2051983 -113.86901202 126.28753742 -111.88916016 123.36987305 C-111.09749324 122.20320655 -110.30582657 121.03653988 -109.51416016 119.86987305 C-85.76416017 84.86987307 -85.76416017 84.86987307 -84.57675171 83.12001038 C-83.78477688 81.95288797 -82.99280504 80.78576354 -82.20083618 79.61863708 C-80.22640881 76.70892662 -78.25193021 73.79925095 -76.27734375 70.88964844 C-71.8299424 64.33615453 -67.38345276 57.78204494 -62.93959045 51.22615051 C-60.91755644 48.24356713 -58.89390175 45.26211035 -56.86645508 42.28320312 C-53.32969877 37.08512691 -49.80574807 31.88032008 -46.33837891 26.63549805 C-45.76007324 25.76868408 -45.18176758 24.90187012 -44.5859375 24.00878906 C-43.54698164 22.45035527 -42.51636212 20.88630685 -41.49707031 19.31494141 C-35.35107029 10.14735441 -27.16796754 3.79739008 -16.48913956 0.8102169 C-11.06959252 -0.2053087 -5.49682902 0.02760641 0 0 Z M690.86083984 70.36987305 C696.11030344 79.55643435 701.40693497 88.66118462 706.92333984 97.68237305 C708.42577541 100.146527 709.92661389 102.6116518 711.42724609 105.0769043 C711.80188995 105.69207916 712.17653381 106.30725403 712.56253052 106.94107056 C716.18952853 112.90084362 719.77836851 118.88324221 723.36083984 124.86987305 C728.92194551 134.16072808 734.5348011 143.41919345 740.16726685 152.66687012 C746.53973593 163.13570391 752.79883678 173.66971956 759.03942871 184.21755981 C763.58554142 191.89820117 768.15972356 199.55063305 772.94995117 207.08227539 C777.4491847 214.20979292 781.69692415 221.48980705 785.98583984 228.74487305 C791.85695677 238.67602436 797.78263637 248.56361241 803.86083984 258.36987305 C809.84899294 268.03415393 815.69732263 277.77265934 821.48583984 287.55737305 C828.59328905 299.57001308 835.78421435 311.52634457 843.06689453 323.43383789 C846.42382248 328.92790641 849.76818302 334.42961474 853.11083984 339.93237305 C853.46535217 340.51587524 853.8198645 341.09937744 854.18511963 341.70056152 C860.15782735 351.53418489 866.08496815 361.3946796 871.9960022 371.26547241 C877.73739007 380.85214444 883.52497442 390.40954683 889.33865356 399.95251465 C895.65386371 410.32453011 901.85402305 420.76278897 908.03723145 431.21389771 C912.64200771 438.99396572 917.27423864 446.74712212 922.12573242 454.37670898 C928.97001632 465.20636705 935.36059251 476.33180863 941.86083984 487.36987305 C944.5700262 484.8066519 946.63998963 482.38142719 948.49755859 479.15112305 C948.98305176 478.31661621 949.46854492 477.48210937 949.96875 476.62231445 C950.49001465 475.71400879 951.0112793 474.80570313 951.54833984 473.86987305 C952.71466281 471.86630993 953.88271465 469.86375249 955.05224609 467.86206055 C955.98061279 466.27216309 955.98061279 466.27216309 956.92773438 464.65014648 C960.22077894 459.06220171 963.6064539 453.53084852 966.98583984 447.99487305 C973.33574117 437.58272566 979.58897976 427.11637908 985.79833984 416.61987305 C990.75649096 408.23919499 995.72366306 399.874728 1000.94995117 391.6574707 C1005.4491847 384.52995318 1009.69692415 377.24993904 1013.98583984 369.99487305 C1019.85695677 360.06372174 1025.78263637 350.17613369 1031.86083984 340.36987305 C1037.84899294 330.70559216 1043.69732263 320.96708675 1049.48583984 311.18237305 C1056.59328905 299.16973301 1063.78421435 287.21340153 1071.06689453 275.3059082 C1074.42382248 269.81183968 1077.76818302 264.31013136 1081.11083984 258.80737305 C1081.64260834 257.93211975 1081.64260834 257.93211975 1082.18511963 257.03918457 C1088.15782735 247.20556121 1094.08496815 237.34506649 1099.9960022 227.47427368 C1105.73739007 217.88760165 1111.52497442 208.33019927 1117.33865356 198.78723145 C1123.65488261 188.41354255 1129.85589177 177.97351511 1136.04025269 167.52081299 C1140.58609011 159.84062897 1145.16000998 152.1886627 1149.94995117 144.6574707 C1154.44918893 137.52994648 1158.69678937 130.24986601 1162.98583984 122.99487305 C1171.93049443 107.86707199 1180.91954716 92.74409626 1190.41259766 77.9519043 C1192.94488358 74.44243623 1192.94488358 74.44243623 1193.86083984 70.36987305 C1027.87083984 70.36987305 861.88083984 70.36987305 690.86083984 70.36987305 Z M-9.13916016 105.36987305 C-16.30122119 115.51239927 -23.40549934 125.68322815 -30.26098633 136.03588867 C-34.85909402 142.972055 -39.52513327 149.86146164 -44.20166016 156.74487305 C-44.60615387 157.34036957 -45.01064758 157.93586609 -45.42739868 158.54940796 C-47.50453637 161.60721795 -49.58218663 164.66467914 -51.66015625 167.72192383 C-55.22408949 172.96577043 -58.78441748 178.21206316 -62.3444519 183.45855713 C-63.12626004 184.61071905 -63.90810021 185.76285924 -64.68997192 186.91497803 C-71.0113905 196.22987649 -77.32644441 205.54907499 -83.63916016 214.86987305 C-92.6838971 228.22453212 -101.7379538 241.57284098 -110.79638672 254.91821289 C-114.34799986 260.1507351 -117.89878597 265.38381851 -121.449646 270.61685181 C-123.42945127 273.5345478 -125.40930829 276.45220867 -127.38916016 279.36987305 C-128.18082707 280.53653954 -128.97249374 281.70320621 -129.76416016 282.86987305 C-144.01416016 303.86987305 -158.26416016 324.86987305 -172.51416016 345.86987305 C-172.90604523 346.44738815 -173.2979303 347.02490326 -173.70169067 347.61991882 C-174.49325462 348.78643358 -175.28481956 349.95294766 -176.0763855 351.11946106 C-178.05713195 354.03844645 -180.03786104 356.95744362 -182.01855469 359.87646484 C-185.56218254 365.098804 -189.10592312 370.32106644 -192.65032959 375.5428772 C-201.31928573 388.31447512 -209.98330001 401.08939508 -218.63916016 413.86987305 C-227.6838971 427.22453212 -236.7379538 440.57284098 -245.79638672 453.91821289 C-249.34799986 459.1507351 -252.89878597 464.38381851 -256.449646 469.61685181 C-258.42945127 472.5345478 -260.40930829 475.45220867 -262.38916016 478.36987305 C-263.18082707 479.53653954 -263.97249374 480.70320621 -264.76416016 481.86987305 C-266.34749349 484.20320638 -267.93082682 486.53653971 -269.51416016 488.86987305 C-269.90598984 489.44730759 -270.29781952 490.02474213 -270.70152283 490.61967468 C-271.49364228 491.78700594 -272.28576672 492.95433382 -273.07789612 494.12165833 C-275.05017584 497.02812916 -277.02237059 499.93465758 -278.99438477 502.84130859 C-282.63887788 508.21292264 -286.28415526 513.58399881 -289.93235779 518.95309448 C-302.61285186 537.60962629 -302.61285186 537.60962629 -315.13916016 556.36987305 C-313.81059822 559.29630542 -312.34351838 561.43994935 -310.12744141 563.76049805 C-309.24330566 564.69490723 -309.24330566 564.69490723 -308.34130859 565.64819336 C-307.71772461 566.29884766 -307.09414063 566.94950195 -306.45166016 567.61987305 C-305.17082278 568.97319845 -303.89086371 570.3273557 -302.61181641 571.68237305 C-302.00354004 572.32561523 -301.39526367 572.96885742 -300.76855469 573.6315918 C-298.39052076 576.16854138 -296.11046359 578.78199532 -293.84228516 581.41674805 C-291.64550111 583.93599581 -289.39226396 586.40090301 -287.13916016 588.86987305 C-284.29391787 591.98894316 -281.46716435 595.11742696 -278.70166016 598.30737305 C-275.2714744 602.25654672 -271.72912498 606.1000961 -268.1862793 609.94775391 C-265.07316717 613.33449924 -262.02663933 616.76893554 -259.01416016 620.24487305 C-256.59365907 622.98810761 -254.11713606 625.67870211 -251.63916016 628.36987305 C-248.01825882 632.30272146 -244.4495709 636.27201317 -240.94775391 640.3112793 C-238.70904765 642.85943955 -236.42505804 645.36397898 -234.13916016 647.86987305 C-231.29391787 650.98894316 -228.46716435 654.11742696 -225.70166016 657.30737305 C-222.2714744 661.25654672 -218.72912498 665.1000961 -215.1862793 668.94775391 C-212.07316717 672.33449924 -209.02663933 675.76893554 -206.01416016 679.24487305 C-203.59365874 681.98810798 -201.11711838 684.67868548 -198.63916016 687.36987305 C-194.99499075 691.32847028 -191.40002236 695.32164136 -187.87353516 699.38549805 C-184.34415302 703.42361995 -180.7328179 707.38901986 -177.13916016 711.36987305 C-175.63887337 713.03628156 -174.13887143 714.70294657 -172.63916016 716.36987305 C-171.89666016 717.19487305 -171.15416016 718.01987305 -170.38916016 718.86987305 C-145.63916016 746.36987305 -145.63916016 746.36987305 -143.39697266 748.86206055 C-141.87207771 750.55580199 -140.34600614 752.24848474 -138.81884766 753.94018555 C-135.44003308 757.68551561 -132.0702005 761.43505512 -128.76416016 765.24487305 C-125.31064454 769.21240029 -121.74912076 773.07834945 -118.18652344 776.94750977 C-115.07330972 780.33431865 -112.02671477 783.76884849 -109.01416016 787.24487305 C-106.59365874 789.98810798 -104.11711838 792.67868548 -101.63916016 795.36987305 C-97.99499075 799.32847028 -94.40002236 803.32164136 -90.87353516 807.38549805 C-87.34415302 811.42361995 -83.7328179 815.38901986 -80.13916016 819.36987305 C-78.63887337 821.03628156 -77.13887143 822.70294657 -75.63916016 824.36987305 C-74.89666016 825.19487305 -74.15416016 826.01987305 -73.38916016 826.86987305 C-48.63916016 854.36987305 -48.63916016 854.36987305 -46.39697266 856.86206055 C-44.87207771 858.55580199 -43.34600614 860.24848474 -41.81884766 861.94018555 C-38.44003308 865.68551561 -35.0702005 869.43505512 -31.76416016 873.24487305 C-28.31064454 877.21240029 -24.74912076 881.07834945 -21.18652344 884.94750977 C-18.07330972 888.33431865 -15.02671477 891.76884849 -12.01416016 895.24487305 C-9.59365874 897.98810798 -7.11711838 900.67868548 -4.63916016 903.36987305 C-0.99499075 907.32847028 2.59997764 911.32164136 6.12646484 915.38549805 C9.65584698 919.42361995 13.2671821 923.38901986 16.86083984 927.36987305 C18.36112663 929.03628156 19.86112857 930.70294657 21.36083984 932.36987305 C22.10333984 933.19487305 22.84583984 934.01987305 23.61083984 934.86987305 C48.36083984 962.36987305 48.36083984 962.36987305 50.60302734 964.86206055 C52.12792229 966.55580199 53.65399386 968.24848474 55.18115234 969.94018555 C58.55996692 973.68551561 61.9297995 977.43505512 65.23583984 981.24487305 C68.68935546 985.21240029 72.25087924 989.07834945 75.81347656 992.94750977 C78.92669028 996.33431865 81.97328523 999.76884849 84.98583984 1003.24487305 C87.40634126 1005.98810798 89.88288162 1008.67868548 92.36083984 1011.36987305 C96.00500925 1015.32847028 99.59997764 1019.32164136 103.12646484 1023.38549805 C106.65584698 1027.42361995 110.2671821 1031.38901986 113.86083984 1035.36987305 C115.36112663 1037.03628156 116.86112857 1038.70294657 118.36083984 1040.36987305 C119.10333984 1041.19487305 119.84583984 1042.01987305 120.61083984 1042.86987305 C136.36083984 1060.36987305 136.36083984 1060.36987305 138.60302734 1062.86206055 C140.12792229 1064.55580199 141.65399386 1066.24848474 143.18115234 1067.94018555 C146.55996692 1071.68551561 149.9297995 1075.43505512 153.23583984 1079.24487305 C156.68935546 1083.21240029 160.25087924 1087.07834945 163.81347656 1090.94750977 C166.92669028 1094.33431865 169.97328523 1097.76884849 172.98583984 1101.24487305 C175.40634093 1103.98810761 177.88286394 1106.67870211 180.36083984 1109.36987305 C183.98174118 1113.30272146 187.5504291 1117.27201317 191.05224609 1121.3112793 C193.29095235 1123.85943955 195.57494196 1126.36397898 197.86083984 1128.86987305 C200.70608213 1131.98894316 203.53283565 1135.11742696 206.29833984 1138.30737305 C209.7285256 1142.25654672 213.27087502 1146.1000961 216.8137207 1149.94775391 C219.92683283 1153.33449924 222.97336067 1156.76893554 225.98583984 1160.24487305 C228.40634126 1162.98810798 230.88288162 1165.67868548 233.36083984 1168.36987305 C237.00500925 1172.32847028 240.59997764 1176.32164136 244.12646484 1180.38549805 C247.65584698 1184.42361995 251.2671821 1188.38901986 254.86083984 1192.36987305 C256.36112663 1194.03628156 257.86112857 1195.70294657 259.36083984 1197.36987305 C260.10333984 1198.19487305 260.84583984 1199.01987305 261.61083984 1199.86987305 C286.36083984 1227.36987305 286.36083984 1227.36987305 288.60302734 1229.86206055 C290.12792229 1231.55580199 291.65399386 1233.24848474 293.18115234 1234.94018555 C296.55996692 1238.68551561 299.9297995 1242.43505512 303.23583984 1246.24487305 C306.68935546 1250.21240029 310.25087924 1254.07834945 313.81347656 1257.94750977 C316.92669028 1261.33431865 319.97328523 1264.76884849 322.98583984 1268.24487305 C325.40634126 1270.98810798 327.88288162 1273.67868548 330.36083984 1276.36987305 C334.00500925 1280.32847028 337.59997764 1284.32164136 341.12646484 1288.38549805 C344.65584698 1292.42361995 348.2671821 1296.38901986 351.86083984 1300.36987305 C353.36112663 1302.03628156 354.86112857 1303.70294657 356.36083984 1305.36987305 C357.10333984 1306.19487305 357.84583984 1307.01987305 358.61083984 1307.86987305 C383.36083984 1335.36987305 383.36083984 1335.36987305 385.60302734 1337.86206055 C387.12792229 1339.55580199 388.65399386 1341.24848474 390.18115234 1342.94018555 C393.55996692 1346.68551561 396.9297995 1350.43505512 400.23583984 1354.24487305 C403.68935546 1358.21240029 407.25087924 1362.07834945 410.81347656 1365.94750977 C413.92669028 1369.33431865 416.97328523 1372.76884849 419.98583984 1376.24487305 C422.40634126 1378.98810798 424.88288162 1381.67868548 427.36083984 1384.36987305 C431.00500925 1388.32847028 434.59997764 1392.32164136 438.12646484 1396.38549805 C441.65584698 1400.42361995 445.2671821 1404.38901986 448.86083984 1408.36987305 C450.36112663 1410.03628156 451.86112857 1411.70294657 453.36083984 1413.36987305 C454.10333984 1414.19487305 454.84583984 1415.01987305 455.61083984 1415.86987305 C480.36083984 1443.36987305 480.36083984 1443.36987305 482.60302734 1445.86206055 C484.12792229 1447.55580199 485.65399386 1449.24848474 487.18115234 1450.94018555 C490.55996692 1454.68551561 493.9297995 1458.43505512 497.23583984 1462.24487305 C500.68935546 1466.21240029 504.25087924 1470.07834945 507.81347656 1473.94750977 C510.92669028 1477.33431865 513.97328523 1480.76884849 516.98583984 1484.24487305 C519.40634226 1486.98810912 521.88293469 1489.67863555 524.36083984 1492.36987305 C530.68295004 1499.23996368 536.79759412 1506.27143903 542.86083984 1513.36987305 C544.15641223 1509.48315588 543.11562604 1506.88976271 542.00024414 1503.10400391 C541.78795197 1502.35844994 541.57565981 1501.61289597 541.35693455 1500.84474945 C540.64114867 1498.33898287 539.91309377 1495.8369495 539.18505859 1493.3347168 C538.67209951 1491.54863629 538.15988953 1489.7623405 537.64837646 1487.97584534 C536.25195576 1483.10701703 534.84482991 1478.24133938 533.43586349 1473.37612915 C531.93924976 1468.20134588 530.45253659 1463.02371892 528.96459961 1457.84643555 C525.56898114 1446.03876589 522.15867826 1434.23536317 518.74612427 1422.43257904 C517.36458933 1417.65305821 515.98472896 1412.87305437 514.60498047 1408.09301758 C510.44414703 1393.67922874 506.28129681 1379.26602647 502.11181641 1364.85473633 C493.13096327 1333.80961069 484.20795023 1302.74801219 475.29833984 1271.68237305 C474.77152052 1269.84554773 474.77152052 1269.84554773 474.23405838 1267.97161484 C471.08795434 1257.00228284 467.94205169 1246.03289308 464.79640198 1235.06343079 C458.45032306 1212.93427221 452.09497004 1190.80778422 445.73583984 1168.68237305 C445.22598093 1166.90833587 444.71612375 1165.13429819 444.20626831 1163.36026001 C440.75832149 1151.36331218 437.30973534 1139.36654818 433.86083984 1127.36987305 C433.50234703 1126.12288258 433.50234703 1126.12288258 433.13661194 1124.85070038 C428.83529395 1109.88893011 424.53376945 1094.92721922 420.23193932 1079.9655962 C412.6750101 1053.68277186 405.12155927 1027.39894894 397.56921387 1001.11480713 C389.83540261 974.19916367 382.09940309 947.28415063 374.36083984 920.36987305 C366.0942008 891.61897825 357.83076329 862.86716483 349.56921387 834.11480713 C341.36606106 805.5657349 333.16038716 777.01738882 324.9519043 748.46984863 C320.52322537 733.06772437 316.09472544 717.66554901 311.66943359 702.26245117 C311.40052055 701.32649675 311.13160751 700.39054234 310.85454559 699.42622566 C309.48689001 694.66587289 308.11962608 689.90540816 306.75305176 685.14474487 C304.06055756 675.76647895 301.36242044 666.38990575 298.65185547 657.0168457 C297.6166409 653.43420517 296.58218839 649.8513455 295.54833984 646.26831055 C295.29787399 645.40048069 295.04740814 644.53265083 294.78935242 643.6385231 C291.5982658 632.56914295 288.51213048 621.47870008 285.54833984 610.34643555 C279.49157541 587.75853003 273.24605614 567.86148291 259.96191406 548.46899414 C256.44603263 543.28300775 253.24141549 537.90892628 249.98583984 532.55737305 C248.66633019 530.42536553 247.3460057 528.29386213 246.02490234 526.1628418 C241.37672732 518.62041501 236.8675063 510.9974179 232.36083984 503.36987305 C226.61517334 493.64664787 220.81016185 483.97035758 214.86083984 474.36987305 C208.87279296 464.70552464 203.02435856 454.96708928 197.23583984 445.18237305 C190.12673814 433.16694005 182.93442753 421.20758791 175.65039062 409.29711914 C172.31804502 403.84625642 168.99300718 398.39096359 165.67333984 392.93237305 C165.3227652 392.35608154 164.97219055 391.77979004 164.61099243 391.18603516 C158.222826 380.67797356 151.94452525 370.10632967 145.68252563 359.5227356 C141.13632337 351.84190781 136.56206699 344.18928735 131.77172852 336.6574707 C127.27249498 329.52995318 123.02475554 322.24993904 118.73583984 314.99487305 C112.86472292 305.06372174 106.93904331 295.17613369 100.86083984 285.36987305 C94.87268675 275.70559216 89.02435706 265.96708675 83.23583984 256.18237305 C76.12839064 244.16973301 68.93746534 232.21340153 61.65478516 220.3059082 C58.29785721 214.81183968 54.95349667 209.31013136 51.61083984 203.80737305 C51.07907135 202.93211975 51.07907135 202.93211975 50.53656006 202.03918457 C44.56525472 192.20787013 38.64009401 182.34935139 32.72970581 172.48132324 C26.55226026 162.16863179 20.3316884 151.88295719 14.07739258 141.61669922 C10.5332423 135.79342231 7.01202733 129.95860641 3.53271484 124.09643555 C2.8344171 122.92234792 2.136094 121.74827538 1.43774414 120.57421875 C0.12227421 118.35923587 -1.18895566 116.1417278 -2.49536133 113.92138672 C-3.07777588 112.94145752 -3.66019043 111.96152832 -4.26025391 110.9519043 C-4.76999756 110.08799072 -5.27974121 109.22407715 -5.80493164 108.33398438 C-6.99461543 106.23857526 -6.99461543 106.23857526 -9.13916016 105.36987305 Z M1260.86083984 105.36987305 C1255.81925547 112.62930574 1251.34017751 120.19431885 1246.86181641 127.80664062 C1244.73766001 131.41613121 1242.60410723 135.02003923 1240.47021484 138.6237793 C1240.08315369 139.27995743 1239.69609253 139.93613556 1239.29730225 140.61219788 C1236.1814819 145.87872127 1232.95250111 151.06960234 1229.67686462 156.23797607 C1225.13310143 163.40830113 1220.86833837 170.75110042 1216.54833984 178.05737305 C1211.23313751 187.04665002 1205.90051354 196.01630349 1200.36083984 204.86987305 C1194.91221639 213.58220609 1189.65568766 222.40175051 1184.42333984 231.24487305 C1177.25142663 243.36428218 1169.99779739 255.42853917 1162.65039062 267.44262695 C1159.31804502 272.89348968 1155.99300718 278.3487825 1152.67333984 283.80737305 C1152.3227652 284.38366455 1151.97219055 284.95995605 1151.61099243 285.55371094 C1145.222826 296.06177254 1138.94452525 306.63341642 1132.68252563 317.2170105 C1128.13632337 324.89783828 1123.56206699 332.55045874 1118.77172852 340.08227539 C1114.27249498 347.20979292 1110.02475554 354.48980705 1105.73583984 361.74487305 C1099.86472292 371.67602436 1093.93904331 381.56361241 1087.86083984 391.36987305 C1081.87268675 401.03415393 1076.02435706 410.77265934 1070.23583984 420.55737305 C1063.12839064 432.57001308 1055.93746534 444.52634457 1048.65478516 456.43383789 C1045.29785721 461.92790641 1041.95349667 467.42961474 1038.61083984 472.93237305 C1038.25632751 473.51587524 1037.90181519 474.09937744 1037.53656006 474.70056152 C1031.94619211 483.90469061 1026.39490262 493.13180064 1020.86083984 502.36987305 C1015.47124592 511.36675436 1010.07494319 520.35928865 1004.61973572 529.31660461 C1003.55762934 531.06744464 1002.50169674 532.82202912 1001.44776917 534.57780457 C997.98457822 540.33071956 994.46788577 546.00887742 990.70483398 551.57324219 C978.97973744 569.24389974 972.89401254 586.76770705 967.52926636 607.1656189 C966.37444112 611.51375761 965.16735454 615.847364 963.96435547 620.18237305 C962.19078272 626.58692769 960.43040201 632.99480522 958.68701935 639.40764427 C955.43945939 651.34511345 952.07204443 663.24534613 948.64208984 675.1315918 C948.38381786 676.02677773 948.12554588 676.92196365 947.85944748 677.84427643 C946.55293161 682.37061269 945.24450918 686.89639503 943.9352417 691.42193604 C941.55957079 699.63711159 939.20120104 707.8572597 936.84128952 716.07697296 C935.53895152 720.61247471 934.23551385 725.14766036 932.93212891 729.68286133 C932.54870236 731.01710522 932.54870236 731.01710522 932.15752983 732.37830353 C927.51830527 748.52171152 922.87709609 764.66454907 918.23583984 780.80737305 C918.00006981 781.62741192 917.76429977 782.44745079 917.52138519 783.29233932 C913.73187212 796.47274316 909.94219507 809.65309986 906.15249634 822.83345032 C902.59686492 835.19973511 899.0412949 847.56603755 895.48583984 859.93237305 C895.25023094 860.75184795 895.01462204 861.57132286 894.77187347 862.41563034 C886.9657418 889.56633962 879.16261272 916.71791097 871.36083984 943.86987305 C863.32121173 971.84962599 855.27998261 999.82891771 847.23583984 1027.80737305 C847.00006981 1028.62741192 846.76429977 1029.44745079 846.52138519 1030.29233932 C842.73187212 1043.47274316 838.94219507 1056.65309986 835.15249634 1069.83345032 C831.59686492 1082.19973511 828.0412949 1094.56603755 824.48583984 1106.93237305 C824.25023094 1107.75184795 824.01462204 1108.57132286 823.77187347 1109.41563034 C815.43795777 1138.40203895 807.10759339 1167.38946727 798.77838135 1196.37722778 C791.07217604 1223.1967041 783.36338189 1250.01543485 775.65246582 1276.83355713 C768.41252448 1302.01371144 761.1749918 1327.19455679 753.93945312 1352.37597656 C752.3703391 1357.83684968 750.80114855 1363.29770081 749.23193359 1368.75854492 C748.97427719 1369.65518608 748.71662079 1370.55182724 748.45115662 1371.47563934 C747.15177159 1375.99747433 745.85237774 1380.51930679 744.55297852 1385.0411377 C741.92366297 1394.19103328 739.29447508 1403.34096552 736.66552734 1412.4909668 C734.31110331 1420.68546774 731.95635293 1428.87987484 729.60124969 1437.0741806 C728.14839072 1442.12927499 726.6958493 1447.18446043 725.24362946 1452.23973846 C724.56534877 1454.60052183 723.88677119 1456.96121969 723.20812988 1459.32189941 C722.3430519 1462.3311166 721.4791595 1465.34067039 720.61608887 1468.35046387 C718.49845517 1475.72800242 716.35558412 1483.0971099 714.17333984 1490.45581055 C713.53408242 1492.62093694 712.89532062 1494.78620894 712.25669861 1496.95152283 C711.65584441 1498.97969478 711.04712028 1501.0053929 710.43811035 1503.03112793 C710.08325562 1504.23410522 709.72840088 1505.43708252 709.36279297 1506.67651367 C709.04733521 1507.73245728 708.73187744 1508.78840088 708.40686035 1509.87634277 C707.59086107 1512.35340405 707.59086107 1512.35340405 708.86083984 1514.36987305 C716.19285578 1506.44362659 716.19285578 1506.44362659 723.36083984 1498.36987305 C726.29928049 1494.97936461 729.32200287 1491.67020322 732.36083984 1488.36987305 C736.00500925 1484.41127582 739.59997764 1480.41810473 743.12646484 1476.35424805 C746.65584698 1472.31612614 750.2671821 1468.35072624 753.86083984 1464.36987305 C755.36112663 1462.70346454 756.86112857 1461.03679952 758.36083984 1459.36987305 C764.36083984 1452.70320638 770.36083984 1446.03653971 776.36083984 1439.36987305 C777.10076172 1438.54745117 777.84068359 1437.7250293 778.60302734 1436.87768555 C780.12792229 1435.1839441 781.65399386 1433.49126136 783.18115234 1431.79956055 C786.55996692 1428.05423049 789.9297995 1424.30469097 793.23583984 1420.49487305 C796.68935546 1416.52734581 800.25087924 1412.66139664 803.81347656 1408.79223633 C806.36609747 1406.01528622 808.89052189 1403.22023992 811.36083984 1400.36987305 C814.29927994 1396.97936524 817.32198126 1393.67018275 820.36083984 1390.36987305 C823.98174118 1386.43702463 827.5504291 1382.46773293 831.05224609 1378.4284668 C834.13863464 1374.91545002 837.30712762 1371.47687487 840.45849609 1368.0222168 C842.43025829 1365.84526309 844.37449322 1363.6514863 846.29833984 1361.43237305 C849.7285256 1357.48319938 853.27087502 1353.63965 856.8137207 1349.79199219 C859.36624438 1347.01510935 861.89059731 1344.2201529 864.36083984 1341.36987305 C867.29928049 1337.97936461 870.32200287 1334.67020322 873.36083984 1331.36987305 C877.00500925 1327.41127582 880.59997764 1323.41810473 884.12646484 1319.35424805 C887.65584698 1315.31612614 891.2671821 1311.35072624 894.86083984 1307.36987305 C896.36112663 1305.70346454 897.86112857 1304.03679952 899.36083984 1302.36987305 C908.36083984 1292.36987305 917.36083984 1282.36987305 926.36083984 1272.36987305 C927.10076172 1271.54745117 927.84068359 1270.7250293 928.60302734 1269.87768555 C930.12792229 1268.1839441 931.65399386 1266.49126136 933.18115234 1264.79956055 C936.55996692 1261.05423049 939.9297995 1257.30469097 943.23583984 1253.49487305 C946.68935546 1249.52734581 950.25087924 1245.66139664 953.81347656 1241.79223633 C956.36609747 1239.01528622 958.89052189 1236.22023992 961.36083984 1233.36987305 C964.29928049 1229.97936461 967.32200287 1226.67020322 970.36083984 1223.36987305 C974.00500925 1219.41127582 977.59997764 1215.41810473 981.12646484 1211.35424805 C984.65584698 1207.31612614 988.2671821 1203.35072624 991.86083984 1199.36987305 C993.36112663 1197.70346454 994.86112857 1196.03679952 996.36083984 1194.36987305 C1005.36083984 1184.36987305 1014.36083984 1174.36987305 1023.36083984 1164.36987305 C1024.10076172 1163.54745117 1024.84068359 1162.7250293 1025.60302734 1161.87768555 C1027.12792229 1160.1839441 1028.65399386 1158.49126136 1030.18115234 1156.79956055 C1033.55996692 1153.05423049 1036.9297995 1149.30469097 1040.23583984 1145.49487305 C1043.68935546 1141.52734581 1047.25087924 1137.66139664 1050.81347656 1133.79223633 C1053.36609747 1131.01528622 1055.89052189 1128.22023992 1058.36083984 1125.36987305 C1061.29928049 1121.97936461 1064.32200287 1118.67020322 1067.36083984 1115.36987305 C1071.00500925 1111.41127582 1074.59997764 1107.41810473 1078.12646484 1103.35424805 C1081.65584698 1099.31612614 1085.2671821 1095.35072624 1088.86083984 1091.36987305 C1090.36112663 1089.70346454 1091.86112857 1088.03679952 1093.36083984 1086.36987305 C1106.86083984 1071.36987305 1106.86083984 1071.36987305 1120.36083984 1056.36987305 C1121.10076172 1055.54745117 1121.84068359 1054.7250293 1122.60302734 1053.87768555 C1124.12792229 1052.1839441 1125.65399386 1050.49126136 1127.18115234 1048.79956055 C1130.55996692 1045.05423049 1133.9297995 1041.30469097 1137.23583984 1037.49487305 C1140.68935546 1033.52734581 1144.25087924 1029.66139664 1147.81347656 1025.79223633 C1150.36609747 1023.01528622 1152.89052189 1020.22023992 1155.36083984 1017.36987305 C1158.29928049 1013.97936461 1161.32200287 1010.67020322 1164.36083984 1007.36987305 C1168.00500925 1003.41127582 1171.59997764 999.41810473 1175.12646484 995.35424805 C1178.65584698 991.31612614 1182.2671821 987.35072624 1185.86083984 983.36987305 C1187.36112663 981.70346454 1188.86112857 980.03679952 1190.36083984 978.36987305 C1196.36083984 971.70320638 1202.36083984 965.03653971 1208.36083984 958.36987305 C1209.10076172 957.54745117 1209.84068359 956.7250293 1210.60302734 955.87768555 C1212.12792229 954.1839441 1213.65399386 952.49126136 1215.18115234 950.79956055 C1218.55996692 947.05423049 1221.9297995 943.30469097 1225.23583984 939.49487305 C1228.68935546 935.52734581 1232.25087924 931.66139664 1235.81347656 927.79223633 C1238.36609747 925.01528622 1240.89052189 922.22023992 1243.36083984 919.36987305 C1246.29927994 915.97936524 1249.32198126 912.67018275 1252.36083984 909.36987305 C1255.98174118 905.43702463 1259.5504291 901.46773293 1263.05224609 897.4284668 C1266.13863464 893.91545002 1269.30712762 890.47687487 1272.45849609 887.0222168 C1274.43025829 884.84526309 1276.37449322 882.6514863 1278.29833984 880.43237305 C1281.7285256 876.48319938 1285.27087502 872.63965 1288.8137207 868.79199219 C1291.36624438 866.01510935 1293.89059731 863.2201529 1296.36083984 860.36987305 C1299.29928049 856.97936461 1302.32200287 853.67020322 1305.36083984 850.36987305 C1309.00500925 846.41127582 1312.59997764 842.41810473 1316.12646484 838.35424805 C1319.65584698 834.31612614 1323.2671821 830.35072624 1326.86083984 826.36987305 C1328.36112663 824.70346454 1329.86112857 823.03679952 1331.36083984 821.36987305 C1340.36083984 811.36987305 1349.36083984 801.36987305 1358.36083984 791.36987305 C1359.10076172 790.54745117 1359.84068359 789.7250293 1360.60302734 788.87768555 C1362.12792229 787.1839441 1363.65399386 785.49126136 1365.18115234 783.79956055 C1368.55996692 780.05423049 1371.9297995 776.30469097 1375.23583984 772.49487305 C1378.68935546 768.52734581 1382.25087924 764.66139664 1385.81347656 760.79223633 C1388.36609747 758.01528622 1390.89052189 755.22023992 1393.36083984 752.36987305 C1396.29928049 748.97936461 1399.32200287 745.67020322 1402.36083984 742.36987305 C1406.00500925 738.41127582 1409.59997764 734.41810473 1413.12646484 730.35424805 C1416.65584698 726.31612614 1420.2671821 722.35072624 1423.86083984 718.36987305 C1425.36112663 716.70346454 1426.86112857 715.03679952 1428.36083984 713.36987305 C1441.86083984 698.36987305 1441.86083984 698.36987305 1455.36083984 683.36987305 C1456.10076172 682.54745117 1456.84068359 681.7250293 1457.60302734 680.87768555 C1459.12792229 679.1839441 1460.65399386 677.49126136 1462.18115234 675.79956055 C1465.55996692 672.05423049 1468.9297995 668.30469097 1472.23583984 664.49487305 C1475.68935546 660.52734581 1479.25087924 656.66139664 1482.81347656 652.79223633 C1485.36609747 650.01528622 1487.89052189 647.22023992 1490.36083984 644.36987305 C1493.29928049 640.97936461 1496.32200287 637.67020322 1499.36083984 634.36987305 C1503.00500925 630.41127582 1506.59997764 626.41810473 1510.12646484 622.35424805 C1513.65584698 618.31612614 1517.2671821 614.35072624 1520.86083984 610.36987305 C1522.36112663 608.70346454 1523.86112857 607.03679952 1525.36083984 605.36987305 C1534.36083984 595.36987305 1543.36083984 585.36987305 1552.36083984 575.36987305 C1553.09431641 574.55260742 1553.82779297 573.7353418 1554.58349609 572.89331055 C1556.16556311 571.1402826 1557.75745142 569.39608833 1559.35693359 567.65893555 C1560.56542969 566.34022461 1560.56542969 566.34022461 1561.79833984 564.99487305 C1562.52923828 564.20338867 1563.26013672 563.4119043 1564.01318359 562.59643555 C1565.70367032 560.55927395 1566.73403764 558.74041855 1567.86083984 556.36987305 C1567.32849731 555.59015137 1567.32849731 555.59015137 1566.78540039 554.79467773 C1556.59760267 539.86961068 1546.44311656 524.92219405 1536.30029297 509.96655273 C1532.71615765 504.68190221 1529.13046056 499.39831153 1525.54486084 494.11465454 C1524.35733877 492.36471384 1523.16987075 490.61473647 1521.98242188 488.86474609 C1518.43848006 483.64191081 1514.89440644 478.41916519 1511.34967041 473.1968689 C1502.23656104 459.77091923 1493.12973775 446.34074098 1484.03039551 432.90545654 C1475.42902021 420.20568593 1466.81789225 407.51255356 1458.20361328 394.8215332 C1454.65200014 389.589011 1451.10121403 384.35592758 1447.550354 379.12289429 C1445.57054873 376.2051983 1443.59069171 373.28753742 1441.61083984 370.36987305 C1440.81917293 369.20320655 1440.02750626 368.03653988 1439.23583984 366.86987305 C1438.84396484 366.29237305 1438.45208984 365.71487305 1438.04833984 365.11987305 C1396.4858396 303.86987268 1396.4858396 303.86987268 1395.29830933 302.11982727 C1394.50674538 300.95331252 1393.71518044 299.78679844 1392.9236145 298.62028503 C1390.94286805 295.70129964 1388.96213896 292.78230247 1386.98144531 289.86328125 C1383.43781746 284.64094209 1379.89407688 279.41867965 1376.34967041 274.1968689 C1367.23656104 260.77091923 1358.12973775 247.34074098 1349.03039551 233.90545654 C1340.42902021 221.20568593 1331.81789225 208.51255356 1323.20361328 195.8215332 C1319.65200014 190.589011 1316.10121403 185.35592758 1312.550354 180.12289429 C1310.57054873 177.2051983 1308.59069171 174.28753742 1306.61083984 171.36987305 C1305.81917293 170.20320655 1305.02750626 169.03653988 1304.23583984 167.86987305 C1303.84396484 167.29237305 1303.45208984 166.71487305 1303.04833984 166.11987305 C1301.86083984 164.36987305 1300.67333984 162.61987305 1299.48583984 160.86987305 C1299.09404541 160.29249893 1298.70225098 159.71512482 1298.29858398 159.12025452 C1297.50607665 157.95233451 1296.71359623 156.78439625 1295.92114258 155.61643982 C1293.95505709 152.71879973 1291.98852123 149.82146746 1290.02099609 146.92480469 C1286.30181449 141.44824006 1282.58757825 135.96848172 1278.88806152 130.47860718 C1277.13627928 127.87962473 1275.38207931 125.28227866 1273.62768555 122.68505859 C1272.79037199 121.44401435 1271.95424971 120.20216543 1271.11938477 118.95947266 C1269.9632746 117.23876688 1268.80312463 115.52085208 1267.64208984 113.8034668 C1266.98273437 112.82434326 1266.32337891 111.84521973 1265.64404297 110.83642578 C1264.16260189 108.78727474 1262.71643559 107.07382331 1260.86083984 105.36987305 Z M625.86083984 108.36987305 C625.06196968 109.4981462 624.31496011 110.66310038 623.58740234 111.83862305 C623.10215088 112.62092285 622.61689941 113.40322266 622.11694336 114.20922852 C621.5786792 115.08724121 621.04041504 115.96525391 620.48583984 116.86987305 C619.63493774 118.25070068 619.63493774 118.25070068 618.7668457 119.65942383 C612.72033597 129.5184044 606.8382655 139.47487719 600.94775391 149.42749023 C594.5990344 160.15100396 588.15221871 170.81118433 581.65039062 181.44262695 C578.31804502 186.89348968 574.99300718 192.3487825 571.67333984 197.80737305 C571.3227652 198.38366455 570.97219055 198.95995605 570.61099243 199.55371094 C564.222826 210.06177254 557.94452525 220.63341642 551.68252563 231.2170105 C547.13851693 238.89413225 542.56760579 246.54388029 537.77832031 254.07128906 C533.21128909 261.30452631 528.90177177 268.6945556 524.54833984 276.05737305 C519.23313751 285.04665002 513.90051354 294.01630349 508.36083984 302.86987305 C502.91221639 311.58220609 497.65568766 320.40175051 492.42333984 329.24487305 C485.25142663 341.36428218 477.99779739 353.42853917 470.65039062 365.44262695 C467.31804502 370.89348968 463.99300718 376.3487825 460.67333984 381.80737305 C460.3227652 382.38366455 459.97219055 382.95995605 459.61099243 383.55371094 C453.222826 394.06177254 446.94452525 404.63341642 440.68252563 415.2170105 C436.13632337 422.89783828 431.56206699 430.55045874 426.77172852 438.08227539 C422.27249498 445.20979292 418.02475554 452.48980705 413.73583984 459.74487305 C407.86472292 469.67602436 401.93904331 479.56361241 395.86083984 489.36987305 C389.87268612 499.03415494 384.02437214 508.77266661 378.23583984 518.55737305 C372.51159166 528.2320654 366.76683686 537.89149148 360.92333984 547.49487305 C360.08198486 548.87968872 360.08198486 548.87968872 359.22363281 550.29248047 C358.7030127 551.14559814 358.18239258 551.99871582 357.64599609 552.87768555 C357.1692041 553.66433594 356.69241211 554.45098633 356.20117188 555.26147461 C355.02335306 557.11423295 353.7571788 558.8127185 352.41943359 560.54956055 C349.55969066 565.72433347 352.06999087 571.53776424 353.62890625 576.96337891 C353.80721576 577.58876368 353.98552526 578.21414845 354.16923809 578.85848427 C354.76255817 580.93518415 355.36246198 583.00992067 355.96240234 585.0847168 C356.39095678 586.57955212 356.81910251 588.07450467 357.24687195 589.56956482 C358.41020948 593.63101805 359.57930476 597.69079378 360.74942398 601.75029755 C361.99588616 606.07841983 363.23700395 610.40807443 364.47875977 614.73754883 C366.82545319 622.91638327 369.17689721 631.0938435 371.53033161 639.27074051 C373.97707052 647.77225164 376.4196167 656.27496425 378.86160278 664.77784157 C382.88491652 678.78616801 386.91260747 692.79323219 390.94287109 706.79956055 C396.56033636 726.32188261 402.17127193 745.84607779 407.78085327 765.3706665 C410.41147088 774.52671272 413.04237298 783.68267719 415.67333984 792.83862305 C415.93235769 793.74002644 416.19137554 794.64142982 416.45824242 795.57014847 C422.09048657 815.17061878 427.72544879 834.77030732 433.36083984 854.36987305 C441.62747889 883.12076785 449.8909164 911.87258127 458.15246582 940.62493896 C465.88627708 967.54058242 473.62227659 994.45559546 481.36083984 1021.36987305 C489.62747889 1050.12076785 497.8909164 1078.87258127 506.15246582 1107.62493896 C513.88627708 1134.54058242 521.62227659 1161.45559546 529.36083984 1188.36987305 C537.62747889 1217.12076785 545.8909164 1245.87258127 554.15246582 1274.62493896 C559.9915678 1294.94650897 565.83100184 1315.26798311 571.67333984 1335.58862305 C572.02743958 1336.82025334 572.02743958 1336.82025334 572.38869286 1338.07676506 C574.74865054 1346.28512258 577.1087636 1354.49343538 579.46925259 1362.70164013 C580.64802674 1366.80066697 581.82672368 1370.89971601 583.00537109 1374.9987793 C583.24003397 1375.81488237 583.47469685 1376.63098545 583.71647072 1377.47181892 C587.34682881 1390.09798832 590.97291985 1402.72537928 594.59724045 1415.35328293 C596.26746079 1421.17228167 597.9382243 1426.99112448 599.60896873 1432.80997276 C600.93602609 1437.43206618 602.26270422 1442.05426763 603.58837891 1446.67675781 C610.92736962 1472.26629404 618.35830776 1497.82780082 625.86083984 1523.36987305 C627.42656766 1520.44246348 628.47953627 1517.59372701 629.40014648 1514.40673828 C629.84278839 1512.88478851 629.84278839 1512.88478851 630.29437256 1511.33209229 C630.77780121 1509.64729767 630.77780121 1509.64729767 631.27099609 1507.9284668 C631.79708466 1506.11206696 631.79708466 1506.11206696 632.33380127 1504.25897217 C633.32355569 1500.84066483 634.30816057 1497.42089187 635.29190445 1494.00085068 C636.14716834 1491.02983855 637.00535459 1488.05967368 637.8634901 1485.08948994 C641.20605643 1473.51919358 644.5344887 1461.94483981 647.86083984 1450.36987305 C648.16388031 1449.31536957 648.46692078 1448.26086609 648.77914429 1447.17440796 C657.14534971 1418.06001308 665.49790129 1388.94170327 673.84745979 1359.82253075 C679.94782449 1338.54786389 686.05711167 1317.27577708 692.17455673 1296.00601578 C692.86107958 1293.61903951 693.54756553 1291.23205263 694.23403931 1288.84506226 C695.14506173 1285.67728067 696.05608599 1282.50949961 696.96711731 1279.34172058 C697.19210215 1278.55941763 697.41708698 1277.77711468 697.64888954 1276.97110558 C698.10174103 1275.39649931 698.55460024 1273.82189527 699.00746727 1272.24729347 C704.53019339 1253.0449657 710.04790361 1233.84119699 715.56564331 1214.63743591 C724.06416855 1185.05958707 732.56525299 1155.48247544 741.06921387 1125.90618896 C748.83567466 1098.89482633 756.59914506 1071.88260557 764.36083984 1044.86987305 C772.59449324 1016.21460082 780.83048804 987.56000322 789.06921387 958.90618896 C796.83567466 931.89482633 804.59914506 904.88260557 812.36083984 877.86987305 C820.59449324 849.21460082 828.83048804 820.56000322 837.06921387 791.90618896 C845.35729657 763.08065137 853.64190032 734.25411527 861.92471313 705.42706299 C867.72852648 685.22781787 873.53339709 665.02887775 879.34130859 644.83081055 C879.87195917 642.98533143 880.40260899 641.13985211 880.93325806 639.29437256 C885.01770062 625.08973687 885.01770062 625.08973687 887.00976562 618.16357422 C887.24548468 617.34394825 887.48120373 616.52432228 887.72406578 615.67985916 C888.18906133 614.063206 888.65416897 612.44658507 889.1193943 610.82999802 C890.21305256 607.02893283 891.30465049 603.22730556 892.39096069 599.4241333 C894.18324858 593.15522195 895.99244997 586.89435869 897.90234375 580.65991211 C898.34753105 579.18362839 898.34753105 579.18362839 898.80171204 577.67752075 C899.33078501 575.92981756 899.87205475 574.18572921 900.42912292 572.44674683 C901.38133163 569.27391952 902.00489811 566.95864931 901.20751953 563.69970703 C900.76311523 562.93086182 900.31871094 562.1620166 899.86083984 561.36987305 C899.3599585 560.45069092 898.85907715 559.53150879 898.34301758 558.58447266 C897.74948486 557.57392822 897.15595215 556.56338379 896.54443359 555.5222168 C896.21641251 554.96211914 895.88839142 554.40202148 895.5504303 553.82495117 C894.47019708 551.98349651 893.38454166 550.1453125 892.29833984 548.30737305 C891.53266676 547.00670148 890.76704257 545.70600113 890.00146484 544.40527344 C882.77525199 532.14932579 875.39477262 519.98833056 867.98144531 507.8449707 C864.45412342 502.06644297 860.93814965 496.28101708 857.42333984 490.49487305 C856.89981934 489.63332108 856.89981934 489.63332108 856.36572266 488.75436401 C850.4492287 479.01549459 844.57929345 469.24917339 838.72485352 459.47290039 C832.98374059 449.88668602 827.1964275 440.32974332 821.38302612 430.78723145 C815.06679708 420.41354255 808.86578792 409.97351511 802.681427 399.52081299 C798.13558958 391.84062897 793.56166971 384.1886627 788.77172852 376.6574707 C784.27249498 369.52995318 780.02475554 362.24993904 775.73583984 354.99487305 C769.86472292 345.06372174 763.93904331 335.17613369 757.86083984 325.36987305 C751.87268675 315.70559216 746.02435706 305.96708675 740.23583984 296.18237305 C733.12673814 284.16694005 725.93442753 272.20758791 718.65039062 260.29711914 C715.31804502 254.84625642 711.99300718 249.39096359 708.67333984 243.93237305 C708.3227652 243.35608154 707.97219055 242.77979004 707.61099243 242.18603516 C701.222826 231.67797356 694.94452525 221.10632967 688.68252563 210.5227356 C684.13632337 202.84190781 679.56206699 195.18928735 674.77172852 187.6574707 C670.27249379 180.52995128 666.02479127 173.24991986 661.73583984 165.99487305 C655.01567514 154.62799701 648.2022039 143.3283167 641.25073242 132.10131836 C637.20596015 125.56861389 633.2072843 119.01298572 629.33300781 112.37744141 C628.53516067 111.02576845 627.70251817 109.6946966 626.86083984 108.36987305 C626.53083984 108.36987305 626.20083984 108.36987305 625.86083984 108.36987305 Z " fill="#F9C941" transform="translate(400.13916015625,346.630126953125)"/>
<path d="M0 0 C2 1 2 1 2.66001892 2.81416321 C2.85334305 3.60936874 3.04666718 4.40457428 3.24584961 5.22387695 C3.58339767 6.58300453 3.58339767 6.58300453 3.92776489 7.96958923 C4.16687592 8.9657576 4.40598694 9.96192596 4.65234375 10.98828125 C5.1811501 13.12424721 5.71021368 15.2601495 6.23950195 17.39599609 C6.51621735 18.52479187 6.79293274 19.65358765 7.07803345 20.81658936 C23.82015694 88.91576966 44.4740649 163.46203206 107.90234375 202.5859375 C123.88048155 212.14152982 140.48933091 219.73824633 158 226 C158.99854004 226.36158203 159.99708008 226.72316406 161.02587891 227.09570312 C193.29679561 238.67097421 226.69807775 246.03362564 260.19628906 253.06567383 C261.94528503 253.43665947 261.94528503 253.43665947 263.72961426 253.81513977 C265.93779292 254.28301293 268.14731034 254.74462342 270.35827637 255.19914246 C271.33800415 255.40735123 272.31773193 255.61556 273.32714844 255.83007812 C274.18516052 256.00865356 275.04317261 256.187229 275.92718506 256.37121582 C278 257 278 257 280 259 C279.39533905 259.1281308 278.7906781 259.2562616 278.16769409 259.38827515 C202.29234287 274.82149526 202.29234287 274.82149526 130 302 C129.1342334 302.41572266 128.2684668 302.83144531 127.37646484 303.25976562 C111.57429949 310.9514632 96.88387131 319.95093941 84.05859375 332.0625 C82.24411058 333.77024886 80.3831053 335.3220452 78.4375 336.875 C73.62371896 340.97855105 69.87339608 346.03109796 66 351 C65.25492188 351.94101562 64.50984375 352.88203125 63.7421875 353.8515625 C54.13534399 366.27016508 46.64309734 379.81141926 40 394 C39.49049805 395.07556152 39.49049805 395.07556152 38.97070312 396.17285156 C21.32201082 433.8858393 11.35338356 475.58507727 2 516 C1.34 516 0.68 516 0 516 C-0.13843826 515.44101013 -0.27687653 514.88202026 -0.41950989 514.30609131 C-21.63933438 422.10552695 -21.63933438 422.10552695 -71.15234375 343.15625 C-73 341 -73 341 -74.00390625 338.84375 C-75.28427826 336.47380651 -76.58823124 336.09792901 -79 335 C-80.39453125 333.66015625 -80.39453125 333.66015625 -81.8125 332.0625 C-104.61545863 308.77744922 -138.7962821 295.97442117 -169 286 C-170.13421387 285.62520508 -171.26842773 285.25041016 -172.43701172 284.86425781 C-206.86777501 273.66894864 -242.55680562 266.21433464 -278 259 C-277.67 258.34 -277.34 257.68 -277 257 C-274.29596033 256.29397838 -271.64310028 255.71222837 -268.90234375 255.1875 C-267.15320078 254.83612737 -265.4040978 254.48455563 -263.6550293 254.1328125 C-262.25889908 253.85679199 -262.25889908 253.85679199 -260.83456421 253.57519531 C-186.51809956 238.82009186 -100.3930744 220.50372328 -55.078125 153.76953125 C-25.20702557 108.34610273 -11.82784874 52.40794765 0 0 Z " fill="#F9C941" transform="translate(709,0)"/>
<path d="M0 0 C4.70588235 0.70588235 4.70588235 0.70588235 6 2 C5.78530608 9.04586398 2.48851155 14.68015908 -0.625 20.875 C-1.81446182 23.29144346 -3.00127533 25.70897937 -4.18359375 28.12890625 C-4.49321548 28.76114609 -4.80283722 29.39338593 -5.12184143 30.04478455 C-8.79034827 37.56686132 -12.24182889 45.18643768 -15.6875 52.8125 C-16.0022226 53.50816071 -16.31694519 54.20382141 -16.64120483 54.92056274 C-18.18396502 58.3309349 -19.72469777 61.74221466 -21.26367188 65.15429688 C-23.80919233 70.79600716 -26.37377024 76.42904735 -28.9375 82.0625 C-29.73837403 83.82417658 -30.53916658 85.5858902 -31.33984375 87.34765625 C-31.89322917 88.56510417 -32.44661458 89.78255208 -33 91 C-29.93212368 91.88858257 -27.15566241 92.14396354 -23.96630859 92.18945312 C-22.96360931 92.20617065 -21.96091003 92.22288818 -20.92782593 92.2401123 C-19.84562775 92.25368774 -18.76342957 92.26726318 -17.6484375 92.28125 C-15.9563768 92.30886414 -15.9563768 92.30886414 -14.23013306 92.33703613 C-10.61180838 92.39575969 -6.99343364 92.44845948 -3.375 92.5 C23.73703053 92.89426302 23.73703053 92.89426302 34.5234375 93.40625 C35.61563095 93.44969543 35.61563095 93.44969543 36.72988892 93.49401855 C40.31083715 93.68987 41.93804191 93.95869461 45 96 C44.67 97.32 44.34 98.64 44 100 C43.46487793 99.97494385 42.92975586 99.9498877 42.37841797 99.92407227 C15.93571909 98.73098548 -10.536709 98.44240562 -37 98 C-37.43131226 99.3310376 -37.43131226 99.3310376 -37.87133789 100.68896484 C-38.83469529 103.51506327 -39.88709851 106.23266152 -41.05859375 108.9765625 C-49.42567026 127.32287532 -49.42567026 127.32287532 -50 147 C-51.65 147 -53.3 147 -55 147 C-55.33 146.01 -55.66 145.02 -56 144 C-56.66 144 -57.32 144 -58 144 C-61.33670063 137.32659874 -57.93266736 128.74693446 -55.76708984 122.18359375 C-52.90844446 114.04618944 -49.86046923 105.72093847 -46 98 C-52.3652933 99.09371635 -55.49442607 100.71059963 -59.4375 105.9375 C-59.90575195 106.52160645 -60.37400391 107.10571289 -60.85644531 107.70751953 C-62.2562229 109.4579552 -63.63064943 111.22570926 -65 113 C-82.89341799 135.84061076 -107.26651266 159.85138 -137 165 C-156.67726281 166.36660748 -173.0236574 164.62963208 -188.875 152.0625 C-193.66942661 147.70907018 -196.60882355 142.73535344 -197.08203125 136.09765625 C-196.78378825 128.47115679 -193.40488038 123.30935406 -187.90234375 118.19921875 C-174.9225096 108.36389354 -158.64372281 103.9046274 -143 100.375 C-141.73144165 100.08363159 -141.73144165 100.08363159 -140.43725586 99.78637695 C-125.69568695 96.62966959 -110.73883613 94.88811698 -95.67578125 94.61328125 C-93.61782432 94.55978923 -91.55988148 94.50575225 -89.50195312 94.45117188 C-86.38223718 94.36996398 -83.27051607 94.31265232 -80.1496582 94.32397461 C-68.47861437 94.66677367 -68.47861437 94.66677367 -57.94543457 90.50244141 C-54.27106652 86.79758788 -51.62725984 82.55814381 -49.1178894 78.00778198 C-47.59711945 75.27640756 -45.82185743 72.74547763 -44.0390625 70.1796875 C-42.89486988 68.41544572 -41.75684037 66.64719163 -40.625 64.875 C-39.69046997 63.42613403 -39.69046997 63.42613403 -38.73706055 61.94799805 C-36.81865938 58.96916684 -34.90910445 55.98479526 -33 53 C-31.78541311 51.11311588 -30.57057403 49.22639407 -29.35546875 47.33984375 C-21.08662056 34.462352 -13.17069664 21.39468541 -5.359375 8.23632812 C-4.81796875 7.32818359 -4.2765625 6.42003906 -3.71875 5.484375 C-3.22310547 4.65131836 -2.72746094 3.81826172 -2.21679688 2.95996094 C-1 1 -1 1 0 0 Z M-35 71 C-36.26375093 72.8096672 -37.4848954 74.64913426 -38.6875 76.5 C-41.6214415 80.9722784 -44.64530051 85.28689479 -47.96875 89.4765625 C-49.18685547 90.96942697 -49.18685547 90.96942697 -49 93 C-46.13622054 93.11231618 -46.13622054 93.11231618 -43 92 C-41.07587316 89.64854424 -39.92039591 87.012465 -38.6875 84.25 C-38.34138672 83.53328125 -37.99527344 82.8165625 -37.63867188 82.078125 C-35.914764 78.42196171 -34.54893127 75.04140706 -34 71 C-34.33 71 -34.66 71 -35 71 Z M-184.62109375 126.70703125 C-188.46087388 131.1777101 -189.37108428 133.92134774 -189.26953125 139.69140625 C-188.6678431 144.84499609 -185.36660166 147.8937557 -181.5625 151.0625 C-169.28422973 159.83269305 -154.43766742 161.41730699 -139.84765625 159.609375 C-108.9433523 152.99610831 -82.65374022 124.69991852 -65 100 C-65 99.67 -65 99.34 -65 99 C-100.45524612 97.65359825 -158.63379464 99.34209218 -184.62109375 126.70703125 Z " fill="#F9C941" transform="translate(1227,138)"/>
<path d="M0 0 C2.24536244 2.52043533 2.84503252 4.51819436 3.0625 7.875 C2.8088462 11.17249945 2.43437744 12.23013774 0.4375 15 C-0.573125 15.763125 -1.58375 16.52625 -2.625 17.3125 C-3.26824219 17.80492187 -3.91148437 18.29734375 -4.57421875 18.8046875 C-14.00667494 25.61231297 -25.00348141 28.90139866 -36.625 29.3125 C-37.285 28.6525 -37.945 27.9925 -38.625 27.3125 C-36.02180948 24.70930948 -34.16338562 24.71950369 -30.5625 24.0625 C-23.55994622 22.51326244 -17.85276314 20.2068664 -13.1875 14.578125 C-10.82399772 10.86873948 -9.76030335 7.63598327 -10.625 3.3125 C-15.14882833 -1.62258545 -20.99264959 -2.730718 -27.41796875 -3.0234375 C-50.67026808 -3.41648278 -74.50286838 0.62234275 -92.625 16.3125 C-96.33365968 21.15646366 -98.24034585 25.18101817 -97.625 31.3125 C-94.42451822 36.88753278 -90.6637807 38.44660895 -84.625 40.3125 C-79.88537831 41.51207413 -75.10164743 42.49803025 -70.31835938 43.50585938 C-69.37154297 43.71146484 -68.42472656 43.91707031 -67.44921875 44.12890625 C-66.59416748 44.30881104 -65.73911621 44.48871582 -64.8581543 44.67407227 C-62.625 45.3125 -62.625 45.3125 -59.625 47.3125 C-59.4375 49.9375 -59.4375 49.9375 -59.625 52.3125 C-62.59874134 53.79937067 -65.65118751 53.48964875 -68.9140625 53.5234375 C-70.42969699 53.55157661 -71.9453218 53.58024122 -73.4609375 53.609375 C-75.83202079 53.65007198 -78.20293701 53.68696609 -80.57421875 53.71386719 C-100.03762365 53.95344221 -119.04106812 55.67467548 -133.44921875 70.14453125 C-138.82288951 76.11672224 -140.16954023 81.28440271 -139.9921875 89.3046875 C-139.42475024 93.95284382 -137.92213126 96.99996159 -134.625 100.3125 C-119.35836656 111.79252751 -96.0558394 111.09770863 -78.0546875 108.6640625 C-55.46318187 104.97079482 -30.51009456 97.19759456 -14 80.6875 C-12.34871642 78.36082101 -12.34871642 78.36082101 -12.875 75.5 C-13.1225 74.778125 -13.37 74.05625 -13.625 73.3125 C-15.935 72.6525 -18.245 71.9925 -20.625 71.3125 C-20.625 70.3225 -20.625 69.3325 -20.625 68.3125 C-14.61168603 67.77559697 -11.35375836 68.55927748 -6.2890625 71.828125 C-4.38627863 73.52544395 -3.5452461 74.94483164 -2.625 77.3125 C-2.50337255 82.66410772 -4.9945284 85.5905371 -8.50390625 89.3046875 C-30.53825438 110.16224724 -67.75022205 114.64648824 -96.625 114.75 C-97.71672516 114.7592601 -97.71672516 114.7592601 -98.83050537 114.76870728 C-116.08761698 114.86301243 -135.01400191 113.02730943 -148.625 101.3125 C-152.47299784 96.95520833 -155.49951405 92.33053779 -155.78125 86.40234375 C-155.02445054 76.28015097 -149.90181551 68.9946118 -142.44140625 62.375 C-130.49415205 53.34908114 -117.04204023 49.53980566 -102.53515625 47.0390625 C-98.86196846 46.73814434 -98.86196846 46.73814434 -97.625 45.3125 C-98.28886719 45.02117187 -98.95273438 44.72984375 -99.63671875 44.4296875 C-105.32264432 41.79008994 -109.28706041 39.69627353 -112.625 34.3125 C-114.34525067 28.94936556 -113.40895631 25.38477981 -110.9765625 20.51171875 C-106.55373183 13.31503186 -99.94708523 9.19587314 -92.625 5.3125 C-91.55636719 4.73371094 -90.48773437 4.15492188 -89.38671875 3.55859375 C-66.49243224 -8.27710319 -21.66195645 -18.18596809 0 0 Z " fill="#F9C941" transform="translate(1462.625,166.6875)"/>
<path d="M0 0 C4.03516008 2.03472661 6.65454133 4.09090222 9 8 C9 10.64 9 13.28 9 16 C0.75 16 -7.5 16 -16 16 C-13.75001411 21.76993432 -13.75001411 21.76993432 -10.875 23.375 C-5.26583454 24.59438379 0.43582851 24.43591522 6 23 C6.33 24.65 6.66 26.3 7 28 C0.15404527 30.28198491 -10.27018098 30.37414111 -16.8125 27.25 C-19.71956914 25.19795119 -21.19850582 23.9777639 -23 21 C-23.8670169 15.82914245 -23.61765116 11.30656976 -21.375 6.5625 C-15.02735882 -0.28627075 -9.14302123 -1.27018192 0 0 Z M-15 8 C-15.33 9.32 -15.66 10.64 -16 12 C-10.06 12 -4.12 12 2 12 C1.56153708 7.07793383 1.56153708 7.07793383 -1.1875 5.1875 C-7.01014013 2.72905195 -10.59197907 3.46603561 -15 8 Z " fill="#F9C941" transform="translate(1533,248)"/>
<path d="M0 0 C1.20527344 -0.01675781 2.41054687 -0.03351563 3.65234375 -0.05078125 C8.27828835 0.44201697 10.81911108 2.06911108 14.0625 5.3125 C15.03170037 8.19524981 15.18060424 10.83307268 15.16015625 13.859375 C15.15693359 14.70371094 15.15371094 15.54804688 15.15039062 16.41796875 C15.14201172 17.29066406 15.13363281 18.16335938 15.125 19.0625 C15.12048828 19.95066406 15.11597656 20.83882813 15.11132812 21.75390625 C15.099574 23.94017329 15.08314249 26.12630179 15.0625 28.3125 C12.7525 28.3125 10.4425 28.3125 8.0625 28.3125 C7.7325 27.6525 7.4025 26.9925 7.0625 26.3125 C6.24072266 26.79783203 6.24072266 26.79783203 5.40234375 27.29296875 C0.29523094 29.51827166 -5.8797584 29.01213214 -11.0625 27.25 C-12.9375 25.3125 -12.9375 25.3125 -14 21.9375 C-13.9375 18.3125 -13.9375 18.3125 -12.3125 15.5 C-8.17566493 11.68975717 -4.13056191 11.05050408 1.375 10.6875 C2.44363281 10.61273438 3.51226563 10.53796875 4.61328125 10.4609375 C5.82564453 10.38746094 5.82564453 10.38746094 7.0625 10.3125 C5.7535428 7.19052522 5.7535428 7.19052522 3.0625 5.3125 C-1.41423252 5.14031798 -5.54348974 5.45513214 -9.9375 6.3125 C-10.2675 4.9925 -10.5975 3.6725 -10.9375 2.3125 C-7.32057772 0.04854116 -4.21169736 0.01348462 0 0 Z M-5.9375 17.3125 C-6.76544448 19.34917618 -6.76544448 19.34917618 -6.9375 21.3125 C-5.3587319 23.0214129 -5.3587319 23.0214129 -2.9375 24.3125 C0.9946709 24.24228266 3.28857974 23.86813506 6.5 21.5625 C8.34536337 18.90517675 8.41455968 17.4810371 8.0625 14.3125 C3.27517836 13.84921081 -1.73378985 14.98482578 -5.9375 17.3125 Z " fill="#F9C941" transform="translate(1232.9375,247.6875)"/>
<path d="M0 0 C1.98 0 3.96 0 6 0 C6.33 0.66 6.66 1.32 7 2 C7.763125 1.67 8.52625 1.34 9.3125 1 C15.18988448 -0.59386698 21.26292124 -1.08342701 27 1.1875 C30.01244353 3.91752695 31.81866559 6.20419839 32.23974609 10.37426758 C32.29514402 13.19270073 32.26130838 15.99453394 32.1875 18.8125 C32.16719727 20.28106445 32.16719727 20.28106445 32.14648438 21.77929688 C32.11125312 24.18676625 32.06199265 26.59309564 32 29 C29.69 29 27.38 29 25 29 C24.96261719 27.75863281 24.92523437 26.51726562 24.88671875 25.23828125 C24.8210405 23.59632489 24.7545938 21.95439913 24.6875 20.3125 C24.66494141 19.49587891 24.64238281 18.67925781 24.61914062 17.83789062 C24.41358412 13.22221266 24.22036028 9.59667204 21 6 C18.83246199 5.36085391 18.83246199 5.36085391 16.5 5.625 C15.33984375 5.67527344 15.33984375 5.67527344 14.15625 5.7265625 C11.82080448 5.9517501 11.82080448 5.9517501 9 7 C7.98533985 9.72307331 7.82790142 12.44197161 7.68359375 15.328125 C7.64169922 16.12734375 7.59980469 16.9265625 7.55664062 17.75 C7.49766602 18.9875 7.49766602 18.9875 7.4375 20.25 C7.39431641 21.09046875 7.35113281 21.9309375 7.30664062 22.796875 C7.20091457 24.86440671 7.09998705 26.93218281 7 29 C4.69 29 2.38 29 0 29 C0 19.43 0 9.86 0 0 Z " fill="#F9C941" transform="translate(1549,248)"/>
<path d="M0 0 C2.64 0 5.28 0 8 0 C10.97 6.93 13.94 13.86 17 21 C19.16953236 16.33418306 19.16953236 16.33418306 21.3371582 11.66748047 C23.16380488 7.74617258 25.0459359 3.86002816 27 0 C29.64 0 32.28 0 35 0 C25.28699135 20.61990132 25.28699135 20.61990132 21 29 C18.36 29 15.72 29 13 29 C11.14361774 25.19380871 9.2923437 21.38518959 7.44580078 17.57421875 C6.81667289 16.27763717 6.18614459 14.98173413 5.55419922 13.68652344 C4.64703828 11.82662989 3.74491197 9.96436859 2.84375 8.1015625 C2.29912109 6.98088379 1.75449219 5.86020508 1.19335938 4.70556641 C0 2 0 2 0 0 Z " fill="#F9C941" transform="translate(1472,248)"/>
<path d="M0 0 C2.64 0 5.28 0 8 0 C10.97 6.6 13.94 13.2 17 20 C19.97 13.4 22.94 6.8 26 0 C28.64 0 31.28 0 34 0 C32.74577315 3.98792946 31.28484419 7.66949404 29.3984375 11.3984375 C28.90859375 12.37167969 28.41875 13.34492188 27.9140625 14.34765625 C27.40617187 15.34667969 26.89828125 16.34570312 26.375 17.375 C25.859375 18.39722656 25.34375 19.41945313 24.8125 20.47265625 C23.54528127 22.98362669 22.27435444 25.49264561 21 28 C18.36 28 15.72 28 13 28 C12.48050781 26.96101563 11.96101563 25.92203125 11.42578125 24.8515625 C11.08998047 24.18012207 10.75417969 23.50868164 10.40820312 22.81689453 C9.67591171 21.35198538 8.94414337 19.88681463 8.21289062 18.42138672 C6.60555121 15.20171173 4.9927646 11.98583856 3.35546875 8.78125 C2.68451172 7.46640625 2.68451172 7.46640625 2 6.125 C1.608125 5.36445313 1.21625 4.60390625 0.8125 3.8203125 C0 2 0 2 0 0 Z " fill="#F9C941" transform="translate(1253,248)"/>
<path d="M0 0 C1.73056641 -0.00386719 1.73056641 -0.00386719 3.49609375 -0.0078125 C6.5625 0.125 6.5625 0.125 9.5625 1.125 C9.2325 2.775 8.9025 4.425 8.5625 6.125 C7.79164062 6.04121094 7.02078125 5.95742187 6.2265625 5.87109375 C5.22367188 5.76925781 4.22078125 5.66742188 3.1875 5.5625 C2.18976563 5.45808594 1.19203125 5.35367188 0.1640625 5.24609375 C-2.421537 4.91355292 -2.421537 4.91355292 -4.4375 6.125 C-4.3545576 8.08444066 -4.3545576 8.08444066 -3.4375 10.125 C-0.99735344 11.38206236 -0.99735344 11.38206236 1.9375 12.1875 C8.38113079 14.1681939 8.38113079 14.1681939 10.5625 17.125 C11.07376266 21.14206374 11.24648851 23.22873919 8.75 26.5 C4.7904538 29.44137718 1.35558062 29.25998558 -3.4375 29.25 C-4.675 29.25257813 -5.9125 29.25515625 -7.1875 29.2578125 C-10.4375 29.125 -10.4375 29.125 -13.4375 28.125 C-13.1075 26.475 -12.7775 24.825 -12.4375 23.125 C-11.60605469 23.20878906 -10.77460937 23.29257812 -9.91796875 23.37890625 C-8.83128906 23.48074219 -7.74460937 23.58257812 -6.625 23.6875 C-5.54605469 23.79191406 -4.46710938 23.89632813 -3.35546875 24.00390625 C-0.37267546 24.30077609 -0.37267546 24.30077609 2.5625 23.125 C3.29573796 21.10991642 3.29573796 21.10991642 3.5625 19.125 C2.89863281 18.94324219 2.23476562 18.76148438 1.55078125 18.57421875 C-7.60639804 15.96743048 -7.60639804 15.96743048 -11.4375 13.125 C-12.85791821 10.28416359 -12.75202272 8.27022722 -12.4375 5.125 C-8.59448134 0.38527699 -5.93867484 -0.01324119 0 0 Z " fill="#F9C941" transform="translate(1627.4375,247.875)"/>
<path d="M0 0 C0 2.64 0 5.28 0 8 C2.97 8 5.94 8 9 8 C9 9.32 9 10.64 9 12 C6.03 12 3.06 12 0 12 C0.33 18.6 0.66 25.2 1 32 C3.64 32 6.28 32 9 32 C9 33.65 9 35.3 9 37 C7.08458862 37.10841951 5.16740227 37.18578079 3.25 37.25 C2.18265625 37.29640625 1.1153125 37.3428125 0.015625 37.390625 C-3 37 -3 37 -5.375 35.65625 C-7.9791612 31.39944803 -7.41887175 27.12779569 -7.25 22.25 C-7.23195313 21.26644531 -7.21390625 20.28289062 -7.1953125 19.26953125 C-7.14824126 16.84536217 -7.08250742 14.42317941 -7 12 C-8.98 12 -10.96 12 -13 12 C-13 10.68 -13 9.36 -13 8 C-11.02 8 -9.04 8 -7 8 C-7 5.69 -7 3.38 -7 1 C-4.53721199 -0.231394 -2.7204945 -0.07159196 0 0 Z " fill="#F9C941" transform="translate(1600,240)"/>
<path d="M0 0 C1.98 0 3.96 0 6 0 C6.33 0.99 6.66 1.98 7 3 C7.680625 2.505 8.36125 2.01 9.0625 1.5 C12.59465009 -0.30365111 15.08636991 -0.23021353 19 0 C19 1.65 19 3.3 19 5 C17.01432292 5.35807292 15.02864583 5.71614583 13.04296875 6.07421875 C10.00553898 7.45064486 9.32629127 8.95923464 8 12 C7.52839424 14.76833642 7.40020088 17.50857748 7.3125 20.3125 C7.27833984 21.05306641 7.24417969 21.79363281 7.20898438 22.55664062 C7.12706446 24.37058164 7.06184178 26.18526353 7 28 C4.69 28 2.38 28 0 28 C0 18.76 0 9.52 0 0 Z " fill="#F9C941" transform="translate(1198,248)"/>
</svg>
